/* XPM */
static char *_508b52dd01749f8ac94b9b8abaa9029otWKbOfrFQdx0cp8[] = {
/* columns rows colors chars-per-pixel */
"80 80 182 2 ",
"   c #55711F",
".  c #567320",
"X  c #597621",
"o  c #5C7B22",
"O  c #617E28",
"+  c #628325",
"@  c #668926",
"#  c #698C27",
"$  c #66852A",
"%  c #6B8F28",
"&  c #6E9329",
"*  c #71972A",
"=  c #759C2B",
"-  c #738B37",
";  c #728A3C",
":  c #798B35",
">  c #789C31",
",  c #7B953E",
"<  c #7BA42E",
"1  c #7FA92F",
"2  c #778144",
"3  c #7D8745",
"4  c #7F8C44",
"5  c #92A71D",
"6  c #95AA1F",
"7  c #899E23",
"8  c #86982C",
"9  c #8C9F2D",
"0  c #808E3C",
"q  c #879932",
"w  c #84993A",
"e  c #8E9D3C",
"r  c #909C38",
"t  c #8DA224",
"y  c #8DA129",
"u  c #80AB2F",
"i  c #91A623",
"p  c #95AA24",
"a  c #93A62C",
"s  c #94A92B",
"d  c #9BAE2E",
"f  c #9EB12D",
"g  c #9DB125",
"h  c #80A634",
"j  c #83AE31",
"k  c #90A531",
"l  c #94A831",
"z  c #9CAF30",
"x  c #9DAB3D",
"c  c #84B031",
"v  c #89B237",
"b  c #8AB338",
"n  c #9DB031",
"m  c #A3B727",
"M  c #A7BB26",
"N  c #AABE26",
"B  c #A2B52C",
"V  c #A6B92E",
"C  c #ACBE2C",
"Z  c #A0AE35",
"A  c #A3B531",
"S  c #ABBB34",
"D  c #A7B73E",
"F  c #B1BF36",
"G  c #B3C429",
"H  c #B3C235",
"J  c #B8C637",
"K  c #BAC934",
"L  c #B4C439",
"P  c #B9C639",
"I  c #BCCB3A",
"U  c #C0CE3C",
"Y  c #C8D537",
"T  c #CCD836",
"R  c #C5D23C",
"E  c #CAD63D",
"W  c #CDD93C",
"Q  c #D7DF37",
"!  c #D4DC3E",
"~  c #D8DE3F",
"^  c #DCE43B",
"/  c #E1E53F",
"(  c #E5E93A",
")  c #EEEE3C",
"_  c #F4F33C",
"`  c #808B4B",
"'  c #849343",
"]  c #859944",
"[  c #87934F",
"{  c #859A49",
"}  c #8C994C",
"|  c #8D9645",
" . c #909C41",
".. c #8D9650",
"X. c #919B52",
"o. c #8CA444",
"O. c #8DA54A",
"+. c #95AB42",
"@. c #98AC44",
"#. c #9BA949",
"$. c #8FB242",
"%. c #94B243",
"&. c #9DB544",
"*. c #95B848",
"=. c #9BBC4C",
"-. c #99B947",
";. c #97B650",
":. c #A2B644",
">. c #A4B944",
",. c #ACBC42",
"<. c #ABB651",
"1. c #A0BC55",
"2. c #A3B458",
"3. c #ADB967",
"4. c #B7BD7D",
"5. c #AEC140",
"6. c #A9C24C",
"7. c #A3C14C",
"8. c #B2C344",
"9. c #B6C74B",
"0. c #BACC4D",
"q. c #B2C942",
"w. c #BDD044",
"e. c #ABC554",
"r. c #A5C252",
"t. c #B3C950",
"y. c #B8C65E",
"u. c #B8C657",
"i. c #BFD050",
"p. c #C1CF43",
"a. c #C5CE49",
"s. c #C6D342",
"d. c #CBD641",
"f. c #CED941",
"g. c #C2D24B",
"h. c #D4DC41",
"j. c #D8DF41",
"k. c #D4DC48",
"l. c #C1D252",
"z. c #D7DF56",
"x. c #D3DA59",
"c. c #DCE241",
"v. c #DDE448",
"b. c #E1E642",
"n. c #E5E941",
"m. c #EBED42",
"M. c #EBED4A",
"N. c #F0EF41",
"B. c #EEF144",
"V. c #EEF148",
"C. c #F4F342",
"Z. c #F4F44B",
"A. c #E2E656",
"S. c #E8EC56",
"D. c #F3F15E",
"F. c #F6F455",
"G. c #CBD169",
"H. c #EBEB64",
"J. c #F3F06F",
"K. c #F4F366",
"L. c #EDEA77",
"P. c #E3E470",
"I. c #C0C58C",
"U. c #CDCF8D",
"Y. c #CDD289",
"T. c #D0D389",
"R. c #DCDC95",
"E. c #DDDC9B",
"W. c #E2DF98",
"Q. c #E2E58F",
"!. c #EEEB89",
"~. c #E8E584",
"^. c #F1EE81",
"/. c #EDEA94",
"(. c #E0E099",
"). c #EBEC98",
"_. c #F2EE95",
"`. c #F0EC99",
"'. c #D7D9A4",
"]. c #DCDCB1",
"[. c #EFEBAD",
"{. c #E9E8B8",
/* pixels */
"c c c c c c c c c c c c c c c c c c c c c c c c c c c c c c c c c c c c c c c c c c c c c c c c c c c c c c c c c c c c c c c c c c c c c c c c c c c c c c c c ",
"c c c c c c c c c c c c c c c c c c c c c c c c c c c c c c c c c c c c c c c c c c c c c c c c c c c c c c c c c c c c c c c c c c c c c c c c c c c c c c c c ",
"c c c c c c c c c c c c c c c c c c c c c c c c c c c c c c c c c c c c c c c c c c c c c c c c c c c c c c c c c c c c c c c c c c c c c c c c c c c c c c c c ",
"c c c c c c c c c c c c c c c c c c c c c c c c c c c c c c c c c c c c c c c c c c c c c c c c c c c c c c c c c c c c c c c c c c c c c c c c c c c c c c c c ",
"c c c c c c c c c c c c c c c c c c c c c c c c c c c c c c c c c c c c c c c c c c c c c c c c c c c c c c c c c c c c c c c c c c c c c c c c c c c c c c c c ",
"c c c c c c c c c c c c c c c c c c c c c c c c c c c c c c c c c c c c c c c c c c c c c c c c c c c c c c c c c c c c c c c c c c c c c c c c c c c c c c c c ",
"c c c c c c c c c c c c c c c c c c c c c c c c c c c c c c c c c c c c c c c c c c c c c c c c c c c c c c c c c c c c c c c c c c c c c c c c c c c c c c c c ",
"c c c c c c c c c c c c c c c c c c c c c c c c c c c c c c c c c c c c c c c c c c c c c c c c c c c c c c c c c c c c c c c c c c c c c c c c c c c c c c c c ",
"c c c c c c c c c c c c c c c c c c c c c c c c c c c c c c c c c c c c c c c c c c c c c c c c c c c c c c c c c c c c c c c c c c c c c c c c c c c c c c c c ",
"c c c c c c c c c c c c c c c c c c c c c c c c c c c c c c c c c c c c c c c c c c c c c c c c c c c c c c c c c c c c c c c c c c c c c c c c c c c c c c c c ",
"c c c c c c c c c c c c c c c c c c c c c c c c c c c c c c c c c c c c c c c c c c c c c c c c c c c c c c c c c c c c c c c c c c c c c c c c c c c c c c c c ",
"c c c c c c c c c c c c c c c c c c c c c c c c c c c c c c c c c c c c c c c c c c c c c c c c c c c c c c c c c c c c c c c c c c c c c c c c c c c c c c c c ",
"c c c c c c c c c c c c c c c c c c c c c c c c c c c c c c c c c c c c c c c c c c c c c c c c c c c c c c c c c c c c c c c c c c c c c c c c c c c c c c c c ",
"c c c c c c c c c c c c c c c c c c c c c c c c c c c c c c c c c c c c c c c c c c c c c c c c c c c c c c c c c c c c c c c c c c c c c c c c c c c c c c c c ",
"c c c c c c c c c c c c c c c c c c c c c c c c c c c c c c c c c c c c c c c c c c c c c c c c c c c c c c c c c c c c c c c c c c c c c c c c c c c c c c c c ",
"c c c c c c c c c c c c c c c c c c c c c c c c c c c c c c c c c c c c c c c c c c c c c c c c c c c c c c c c c c c c c c c c c c c c c c c c c c c c c c c c ",
"c c c c c c c c c c c c c c c c c c c c c c c c c c c c c c c c c c c c c c c c c c c c c c c c c c c c c c c c c c c c c c c c c c c c c c c c c c c c c c c c ",
"c c c c c c c c c c c c c c c c c c c c c c c c c c c c c c c c c c c c c c c c c c c c c c c c c c c c c c c c c c c c c c c c c c c c c c c c c c c c c c c c ",
"c c c c c c c c c c c c c c c c c c c c c c c c c c c c c c c c c c c c c c c c c c c c c c c c c c c c c c c c c c c c c c c c c c c c c c c c c c c c c c c c ",
"c c c c c c c c c c c c c c c c c c c c c c c c c c c c c c c c c c c c c c c c c c c c c c c c c c c c c c c c c c c c c c c c c c c c c c c c c c c c c c c c ",
"c c c c c c c c c c c c c c c c c c c c c c c c c c c c c c c c c c c c c c c c c c c c c c c c c c c c c c c c c c c c c c c c c c c c c c c c c c c c c c c c ",
"c c c c c c c c c c c c c c c c c c c c c c c c c c c c c c c c c c c c c c c c c c c j c c j c j c j c c c c c c c c c c c c c c c c c c c c c c c c c c c c c ",
"c c c c c c c c c c c c c c c c c c c c c c c c c c c c c c c c c c c c c c c j j j j j j u j u j j j j c j c c c c c c c c c c c c c c c c c c c c c c c c c c ",
"c c c c c c c c c c c c c c c c c c c c c c c c c c c c c c c c c c c c c j j j j u j u 1 1 u 1 1 u j u j j j j c c c c c c c c c c c c c c c c c c c c c c c c ",
"c c c c c c c c c c c c c c c c c c c c c c c c c c c c c c c c c c c c u c 1 1 1 1 < 1 < < < < < < 1 1 1 1 j j j j j c c c c c c c c c c c c c c c c c c c c c ",
"c c c c c c c c c c c c c c c c c c c c c c c c c c c c c c c c c j c b >.t.0.w.i.y.t.6.%.h < = < < < < 1 1 1 1 j j j j c c c c c c c c c c c c c c c c c c c c ",
"c c c c c c c c c c c c c c c c c c c c c c c c c c c c c c c c c b 6.g.E E T G.T.d.E E s.0.:.> * * = = < < < 1 j j j j c c c c c c c c c c c c c c c c c c c c ",
"c c c c c c c c c c c c c c c c c c c c c c c c c c c c c c c c =.g.W W f.^ x.].z.W W f.s.E E 9.O.& * * * * < < < 1 j j j c c c c c c c c c c c c c c c c c c c ",
"c c c c c c c c c c c c c c c c c c c c c c c c c c c c c c c 7.d.W f.c.c.c.(.Q.^ ! ! f.d.d.d.R w.+.# # & & = < < 1 1 j j j c c c c c c c c c c c c c c c c c c ",
"c c c c c c c c c c c c c c c c c c c c c c c c c c c c c c r.E f.f.c.c.n.H.{.A.^ c.h.h.h.W d.s.R I O.@ # # & * = < < 1 j j j c c c c c c c c c c c c c c c c c ",
"c c c c c c c c c c c c c c c c c c c c c c c c c c c c c =.s.W h.c.^ n.V.).).^ n.c.c.c.c.d.f.s.s.R 8., + @ # & * < < 1 1 j c j c c c c c c c c c c c c c c c c ",
"c c c c c c c c c c c c c c c c c c c c c c c c c c c c v i.W h.c.c.c.B.D.[.D.) m.n.c.c.c.f.W s.s.I J >.$ + @ # & * = < 1 j j c c c c c c c c c c c c c c c c c ",
"c c c c c c c c c c c c c c c c c c c c c c c c c c c c r.E h.h.c.c.n.Z.^._.C.B.N.m.n./ j.h.h.d.R p.F V { o + @ % & = < < 1 j j j c c c c c c c c c c c c c c c ",
"c c c c c c c c c c c c c c c c c c c c c c c c c c c v l.E h.h.c.c.B.F.`.K._ C.C.N.m.n.c.j.h.d.p.U P B @.O o + @ & * = < 1 j j c c c c c c c c c c c c c c c c ",
"c c c c c c c c c c c c c c c c c c c c c c c c c c c =.E W h.h.c.n.Z.J._.C._ C.C.N.N./ / j.k.d.U I F A s ; o o + @ & = < < 1 u j c c c c c c c c c c c c c c c ",
"c c c c c c c c c c c c c c c c c c c c c c c c c c c e.E f.h.c.c.V.Z.!.K._ C.C.C.N.N.n.b.j.h.E U I F Z t { . o + @ & & = < 1 j c c c c c c c c c c c c c c c c ",
"c c c c c c c c c c c c c c c c c c c c c c c c c c c t.E f.h.h.c.B.D./.Z._ C.C.C.N.m.n./ j.h.E U P S z t ] . o o + % & = < < j j c c c c c c c c c c c c c c c ",
"c c c c c c c c c c c c c c c c c c c c c c c c c c c q.E W f.c.b.Z.~.L._ C.C.C.C.m.m.n.c.h.W R P F A s p : . . o + @ & = < < 1 j c c c c c c c c c c c c c c c ",
"c c c c c c c c c c c c c c c c c c c c c c c c c c c 0.R E h.k.M.H.(.M.) C.C.C.N.m.n./ c.h.W U L S z d l 4 . . o + @ % * < < u c c c c c c c c c c c c c c c c ",
"c c c c c c c c c c c c c c c c c c c c c c c c c c 1 q.U s.f.c.S.'.P.( m.B.C.C.m.m.b.c.~ E R F S A z A  .} . . o o @ & * < < u 1 c c c c c c c c c c c c c c c ",
"c c c c c c c c c c c c c c c c c c c c c c c c c c c e.K R W v.R.(.^ / n.n.n./ n.b.^ h.W Y P F A d A x ..] . . o o @ % * = < 1 c c c c c c c c c c c c c c c c ",
"c c c c c c c c c c c c c c c c c c c c c c c c c c c ;.,.P a.U.'.k.Q c.c.c.b./ b.~ j.W U U F S Z A A X.e ' . . o + @ % * < 1 1 1 c c c c c c c c c c c c c c c ",
"c c c c c c c c c c c c c c c c c c c c c c c c c c c *.3.4.I.Y.s.E h.h.j.j.j.j.! ! E U U F A d B S } } y ; . . o o @ & * = < u c c c c c c c c c c c c c c c c ",
"c c c c c c c c c c c c c c c c c c c c c c c c c c c v :.,.8.J I U U R f.W E E R R U P F V Z B S | [ 7 @.X . X o + @ & = < 1 u c c c c c c c c c c c c c c c c ",
"c c c c c c c c c c c c c c c c c c c c c c c c c c c j =.p A S F H P I I U U I I P F S B f B S ' ` 9 5 { . . o o + % & = < < u 1 c c c c c c c c c c c c c c c ",
"c c c c c c c c c c c c c c c c c c c c c c c c c c c c c @.t z A A S F F H H S S S A f z V d ` ` 9 i Z X . . o + @ % * < < 1 j c c c c c c c c c c c c c c c c ",
"c c c c c c c c c c c c c c c c c c c c c c c c c c c c j %.y t s s Z B A A A B f d s f A r 2 0 a p S -   . o o + % & = < 1 1 u c c c c c c c c c c c c c c c c ",
"c c c c c c c c c c c c c c c c c c c c c c c c c c c c c j ;.7 7 a a a s s s s a a p a 0 2 q a g C { .   o o + @ % & = < 1 u c c c c c c c c c c c c c c c c c ",
"c c c c c c c c c c c c c c c c c c c c c c c c c c c c j c j ;.l 7 7 t y y 7 7 9 t 8 : ' a g M H ]   X o o + @ % & * < < 1 u c c c c c c c c c c c c c c c c c ",
"c c c c c c c c c c c c c c c c c c c c c c c c c c c c c c j j $.:.p t t y y t 7 w X.x m N G ,.- X o o o + @ % & * < < 1 u j c c c c c c c c c c c c c c c c c ",
"c c c c c c c c c c c c c c c c c c c c c c c c c c c c c j j j u h ;.,.V m m d #.<.H G P 8.o.O o o o + + @ % & = < < 1 j j j c c c c c c c c c c c c c c c c c ",
"c c c c c c c c c c c c c c c c c c c c c c c c c c c c c c c j j u 1 1 %.&.D 2.3.L >.@.w $ o o o + + @ @ & & = = < < 1 j j j c c c c c c c c c c c c c c c c c ",
"c c c c c c c c c c c c c c c c c c c c c c c c c c c c c c j c u u u 1 < = = * * % # @ @ @ @ @ @ @ # % & * = = < < 1 j u j c c c c c c c c c c c c c c c c c c ",
"c c c c c c c c c c c c c c c c c c c c c c c c c c c c c c c j c c j 1 u < < = = * * % & % % % % & * * = = < < 1 1 j j j c c c c c c c c c c c c c c c c c c c ",
"c c c c c c c c c c c c c c c c c c c c c c c c c c c c c c c c c j j u u u < < = = = = = * * = * * = = < < < u j j j c j c c c c c c c c c c c c c c c c c c c ",
"c c c c c c c c c c c c c c c c c c c c c c c c c c c c c c c c c c j j u u u u < < < < = < = = < < < < < < u u j j j c c c c c c c c c c c c c c c c c c c c c ",
"c c c c c c c c c c c c c c c c c c c c c c c c c c c c c c c c c c j c j j j j u 1 < < < < < < < < < 1 1 j j j j j j c c c c c c c c c c c c c c c c c c c c c ",
"c c c c c c c c c c c c c c c c c c c c c c c c c c c c c c c c c c c c j c j j j j j j u u u u u j j j j j j c j j c c c c c c c c c c c c c c c c c c c c c c ",
"c c c c c c c c c c c c c c c c c c c c c c c c c c c c c c c c c c c c c c j j c j j j j j j j j j j j j j j c c c c c c c c c c c c c c c c c c c c c c c c c ",
"c c c c c c c c c c c c c c c c c c c c c c c c c c c c c c c c c c c c c c c c c c j c j c j j j c c c c c c c c c c c c c c c c c c c c c c c c c c c c c c c ",
"c c c c c c c c c c c c c c c c c c c c c c c c c c c c c c c c c c c c c c c c c c c c c c c c c c c c c c c c c c c c c c c c c c c c c c c c c c c c c c c c ",
"c c c c c c c c c c c c c c c c c c c c c c c c c c c c c c c c c c c c c c c c c c c c c c c c c c c c c c c c c c c c c c c c c c c c c c c c c c c c c c c c ",
"c c c c c c c c c c c c c c c c c c c c c c c c c c c c c c c c c c c c c c c c c c c c c c c c c c c c c c c c c c c c c c c c c c c c c c c c c c c c c c c c ",
"c c c c c c c c c c c c c c c c c c c c c c c c c c c c c c c c c c c c c c c c c c c c c c c c c c c c c c c c c c c c c c c c c c c c c c c c c c c c c c c c ",
"c c c c c c c c c c c c c c c c c c c c c c c c c c c c c c c c c c c c c c c c c c c c c c c c c c c c c c c c c c c c c c c c c c c c c c c c c c c c c c c c ",
"c c c c c c c c c c c c c c c c c c c c c c c c c c c c c c c c c c c c c c c c c c c c c c c c c c c c c c c c c c c c c c c c c c c c c c c c c c c c c c c c ",
"c c c c c c c c c c c c c c c c c c c c c c c c c c c c c c c c c c c c c c c c c c c c c c c c c c c c c c c c c c c c c c c c c c c c c c c c c c c c c c c c ",
"c c c c c c c c c c c c c c c c c c c c c c c c c c c c c c c c c c c c c c c c c c c c c c c c c c c c c c c c c c c c c c c c c c c c c c c c c c c c c c c c ",
"c c c c c c c c c c c c c c c c c c c c c c c c c c c c c c c c c c c c c c c c c c c c c c c c c c c c c c c c c c c c c c c c c c c c c c c c c c c c c c c c ",
"c c c c c c c c c c c c c c c c c c c c c c c c c c c c c c c c c c c c c c c c c c c c c c c c c c c c c c c c c c c c c c c c c c c c c c c c c c c c c c c c ",
"c c c c c c c c c c c c c c c c c c c c c c c c c c c c c c c c c c c c c c c c c c c c c c c c c c c c c c c c c c c c c c c c c c c c c c c c c c c c c c c c ",
"c c c c c c c c c c c c c c c c c c c c c c c c c c c c c c c c c c c c c c c c c c c c c c c c c c c c c c c c c c c c c c c c c c c c c c c c c c c c c c c c ",
"c c c c c c c c c c c c c c c c c c c c c c c c c c c c c c c c c c c c c c c c c c c c c c c c c c c c c c c c c c c c c c c c c c c c c c c c c c c c c c c c ",
"c c c c c c c c c c c c c c c c c c c c c c c c c c c c c c c c c c c c c c c c c c c c c c c c c c c c c c c c c c c c c c c c c c c c c c c c c c c c c c c c ",
"c c c c c c c c c c c c c c c c c c c c c c c c c c c c c c c c c c c c c c c c c c c c c c c c c c c c c c c c c c c c c c c c c c c c c c c c c c c c c c c c ",
"c c c c c c c c c c c c c c c c c c c c c c c c c c c c c c c c c c c c c c c c c c c c c c c c c c c c c c c c c c c c c c c c c c c c c c c c c c c c c c c c ",
"c c c c c c c c c c c c c c c c c c c c c c c c c c c c c c c c c c c c c c c c c c c c c c c c c c c c c c c c c c c c c c c c c c c c c c c c c c c c c c c c ",
"c c c c c c c c c c c c c c c c c c c c c c c c c c c c c c c c c c c c c c c c c c c c c c c c c c c c c c c c c c c c c c c c c c c c c c c c c c c c c c c c ",
"c c c c c c c c c c c c c c c c c c c c c c c c c c c c c c c c c c c c c c c c c c c c c c c c c c c c c c c c c c c c c c c c c c c c c c c c c c c c c c c c ",
"c c c c c c c c c c c c c c c c c c c c c c c c c c c c c c c c c c c c c c c c c c c c c c c c c c c c c c c c c c c c c c c c c c c c c c c c c c c c c c c c "
};
