/* XPM */
static char *a585ec45cd9142119190ed8e4774a57dUU64hZIcNElG5Gcc[] = {
/* columns rows colors chars-per-pixel */
"80 80 216 2 ",
"   c #04060D",
".  c #090909",
"X  c #060707",
"o  c #030511",
"O  c #040812",
"+  c #0F0B14",
"@  c #140E13",
"#  c #161213",
"$  c #1B151B",
"%  c #1A1919",
"&  c #171517",
"*  c #10090B",
"=  c #231D1F",
"-  c #0F0E22",
";  c #100F22",
":  c #1A1923",
">  c #201D25",
",  c #1F2020",
"<  c #232223",
"1  c #2C2629",
"2  c #2F282A",
"3  c #2C2727",
"4  c #373D2C",
"5  c #383E2D",
"6  c #33362A",
"7  c #2F3524",
"8  c #423C35",
"9  c #3A4329",
"0  c #3D4234",
"q  c #45413A",
"w  c #564D3B",
"e  c #584F3F",
"r  c #535E3F",
"t  c #475431",
"y  c #5C7038",
"u  c #647B38",
"i  c #595443",
"p  c #4A464C",
"a  c #615A4B",
"s  c #5B6A40",
"d  c #6D7E4B",
"f  c #677549",
"g  c #6C7352",
"h  c #79745A",
"j  c #766A59",
"k  c #5F6274",
"l  c #706E72",
"z  c #B07E0B",
"x  c #6E9329",
"c  c #71972A",
"v  c #749B2B",
"b  c #769933",
"n  c #789937",
"m  c #7AA32D",
"M  c #7FA92F",
"N  c #7DA138",
"B  c #75864D",
"V  c #74874F",
"C  c #AA821F",
"Z  c #998A3E",
"A  c #AE8623",
"S  c #B78F25",
"D  c #80AB2F",
"F  c #83AE31",
"G  c #86AD3C",
"H  c #84B031",
"J  c #8BB43B",
"K  c #88B337",
"L  c #C4961D",
"P  c #EF9A00",
"I  c #F29506",
"U  c #F39D01",
"Y  c #E88D00",
"T  c #EEA203",
"R  c #EFA60B",
"E  c #F3A203",
"W  c #F3AE00",
"Q  c #F2A30A",
"!  c #F7A709",
"~  c #F3B401",
"^  c #FEB503",
"/  c #FBB907",
"(  c #F2B70A",
")  c #F4B90B",
"_  c #FBB908",
"`  c #EEA612",
"'  c #EEAB19",
"]  c #F1A714",
"[  c #F5AA14",
"{  c #F4A61D",
"}  c #F4AD1E",
"|  c #FAAD1C",
" . c #EFBF1F",
".. c #F5BC13",
"X. c #F4BE1D",
"o. c #FCBD1C",
"O. c #F8B818",
"+. c #EEAF22",
"@. c #F4AD22",
"#. c #F1AE2B",
"$. c #EFB32D",
"%. c #EFB022",
"&. c #F5B123",
"*. c #F5BD23",
"=. c #F5BD29",
"-. c #F5B629",
";. c #ECB638",
":. c #F1B432",
">. c #F6C11D",
",. c #FCC21D",
"<. c #F6C226",
"1. c #FCC323",
"2. c #F4C42B",
"3. c #FBC428",
"4. c #F6CA2C",
"5. c #F9CB29",
"6. c #FACB25",
"7. c #F2C532",
"8. c #F5CC32",
"9. c #F3CA3B",
"0. c #F7D235",
"q. c #F9D435",
"w. c #FBDE3D",
"e. c #F9D738",
"r. c #EDC333",
"t. c #FBE13F",
"y. c #83A344",
"u. c #8BAC4B",
"i. c #84A449",
"p. c #8FB741",
"a. c #8FB34D",
"s. c #96BB4B",
"d. c #92AD52",
"f. c #9AB559",
"g. c #8CA951",
"h. c #BEBF5F",
"j. c #A3BF57",
"k. c #A5BB63",
"l. c #A8BA67",
"z. c #BEAA7D",
"x. c #B4BF70",
"c. c #ADBE6C",
"v. c #DBAC4F",
"b. c #D9A947",
"n. c #CFAF50",
"m. c #DBAD50",
"M. c #C7B856",
"N. c #D7B857",
"B. c #E9BE48",
"V. c #F0BD44",
"C. c #CBBE63",
"Z. c #C0AA7B",
"A. c #E9BC6B",
"S. c #E7BC6B",
"D. c #E7BE70",
"F. c #9EC056",
"G. c #9EC058",
"H. c #A6C25C",
"J. c #B2C55F",
"K. c #AAC663",
"L. c #ACC269",
"P. c #BEC162",
"I. c #BBC26B",
"U. c #B4C96A",
"Y. c #BCCA69",
"T. c #B3C765",
"R. c #BACB71",
"E. c #BDD575",
"W. c #DEC04D",
"Q. c #DAC653",
"!. c #D4C55C",
"~. c #DBCA5D",
"^. c #E9C748",
"/. c #F2CB48",
"(. c #F3D44B",
"). c #E3CD55",
"_. c #EBCE51",
"`. c #E3C55B",
"'. c #E4C757",
"]. c #EECE59",
"[. c #FCE341",
"{. c #FDEA45",
"}. c #F2E15F",
"|. c #FEF148",
" X c #CDC964",
".X c #C5CA6A",
"XX c #CBCD6D",
"oX c #C5C665",
"OX c #D4CA6B",
"+X c #D7CA67",
"@X c #D7D268",
"#X c #C7C973",
"$X c #C8D16F",
"%X c #E9C379",
"&X c #FCD17C",
"*X c #F3D864",
"=X c #F3E16E",
"-X c #BFAD82",
";X c #C0AE84",
":X c #C6B489",
">X c #D4C494",
",X c #FDD484",
"<X c #FEDA8C",
"1X c #F9D988",
"2X c #FBDA90",
"3X c #EDD08D",
"4X c #F6E080",
"5X c #FFE096",
"6X c #FFE49B",
"7X c #FCEAA8",
"8X c #FFF0A8",
"9X c #FFFFBB",
"0X c #F9EEB8",
"qX c #AAAFC2",
"wX c #FBF8C3",
"eX c #FCFFFF",
/* pixels */
"H H H H H H H H H H H H H H H H H H H H H H H H H H H H H H H H H H H H H H H H H H H H H H H H H H H H H H H H H H H H H H H H H H H H H H H H H H H H H H H H ",
"H H H H H H H H H H H H H H H H H H H H H H H H H H H H H H H H H H H H H H H H H H H H H H H H H H H H H H H H H H H H H H H H H H H H H H H H H H H H H H H H ",
"H H H H H H H H H H H H H H H H H H H H H H H H H H H H H H H H H H H H H H H H H H H H H H H H H H H H H H H H H H H H H H H H H H H H H H H H H H H H H H H H ",
"H H H H H H H H H H H H H H H H H H H H H H H H H H H H H H H H H H H H H H H H H H H H H H H H H H H H H H H H H H H H H H H H H H H H H H H H H H H H H H H H ",
"H H H H H H H H H H H H H H H H H H H H H H H H H H H H H H H H H H H H H H H H H H H H H H H H H H H H H H H H H H H H H H H H H H H H H H H H H H H H H H H H ",
"H H H H H H H H H H H H H H H H H H H H H H H H H H H H H H H H H H H H H H H H H H H H H H H H H H H H H H H H H H H H H H H H H H H H H H H H H H H H H H H H ",
"H H H H H H H H H H H H H H H H H H H H H H H H H H H H H H H H H H H H H H H H H H H H H H H H H H H H H H H H H H H H H H H H H H H H H H H H H H H H H H H H ",
"H H H H H H H H H H H H H H H H H H H H H H H H H H H H H H H H H H H H H H H H H H H H H H H H H H H H H H H H H H H H H H H H H H H H H H H H H H H H H H H H ",
"H H H H H H H H H H H H H H H H H H H H H H H H H H H H H H H H H H H H H H H H H H H H H H H H H H H H H H H H H H H H H H H H H H H H H H H H H H H H H H H H ",
"H H H H H H H H H H H H H H H H H H H H H H H H H H H H H H H H H H H H H H H H H H H H H H H H H H H H H H H H H H H H H H H H H H H H H H H H H H H H H H H H ",
"H H H H H H H H H H H H H H H H H H H H H H H H H H H H H H H H H H H H H H H H H H H H H H H H H H H H H H H H H H H H H H H H H H H H H H H H H H H H H H H H ",
"H H H H H H H H H H H H H H H H H H H H H H H H H H H H H H F K H H H H H H H H H H H H H H H H H H H H H H H H H H H H H H H H H H H H H H H H H H H H H H H H ",
"H H H H H H H H H H H H H H H H H H H H H H H H H F F H F F F F H H H H H H K H H H F F K F F F H F H H F F H H H H H H H H H H H H H H H H H H H H H H H H H H ",
"H H H H H H H H H H H H H H H H H H H H H H H H j.M.m.v.B.m.m.m.m.v.v.v.v.v.m.m.v.v.m.m.v.v.m.m.m.m.b.b.m.m.m.n.P.K H H H H H H H H H H H H H H H H H H H H H H ",
"H H H H H H H H H H H H H H H H H H H H H H H H #XY U I I I I I I I I I I I I I I ! ! U Q E Q U E U #.V.E E Q U ;.c c c m F H H H H H H H H H H H H H H H H H H ",
"H H H H H H H H H H H H H H H H H H H H H H H H H ^.! &.&.&.-.-.-.&.*.-.&.&.*.&.*.5.6.5.5.5.5.5.5.,.(.}.,.6.5.) L.x x x x H H H H H H H H H H H H H H H H H H H ",
"H H H H H H H H H H H H H H H H H H F K J.!.B.N..X'.Q &.@.&.@.&.@.&.&.&.&.@.@.@.-.<.<.<.<.<.<.<.<.2.<.>.=.2.>.<..XP.Q. XH.J F H H H H H H H H H H H H H H H H H ",
"H H H H H H H H H H H H H H H H H H p.~.P P R } $.$.} @.&.&.&.&.&.&.@.&.&.&.&.@.*.<.2.<.<.<.<.<.2.7.*.>.r.7X].>.2. .) W ~ ).u.v m F H H H H H H H H H H H H H H ",
"H H H H H H H H H H H H H H F H H H +XU [  XK.N n l.$.[ @.@.&.@.&.&.&.@.&.@.@.@.-.5.<.<.<.<.<...(.=X..*.2.4X=.Q.d.g.f.I.<.W _.b x c F H H H H H H H H H H H H H ",
"H H H H H H H H H H H H H H H H H F.@.U XXH c x c v '.Q &.&.&.&.&.@.&.@.&.&.@.@.q.q.*.<.<.<.<.9.wXeX*X2.*.X...l.x x x c R.) ~ c.x x x H H H H H H H H H H H H H ",
"H H H H H H H H H H H H H H H H F .XE %.G.M x x v H OXT &.&.&.&.&.&.&.@.&.&.@.@.w.e.<.<.<.<.<.>.1X0X7.<.<...9.G x x x m K _.W @Xm x x m H H H H H H H H H H H H ",
"H H H H H H H H H H H H H H H H F OXP ;.s.m x x D F T.' | &.@.@.@.&.&.&.@.@.@.=.[.w.<.<.<.<.<.o.7._...<.<.) ~.x x x x F F ].~ ).H x x c H H H H H H H H H H H H ",
"H H H H H H H H H H H H H H H H F  XE &.H.v x x D F p.V.[ &.&.&.@.&.@.@.@.@.{ 8.{.t.<.*.<.<.<.*.2.2.<.<.<.) P.x x x v H J _.~ ).H c x c H H H H H H H H H H H H ",
"H H H H H H H H H H H H H H H H H Y.E R U.v x x D H F `.E &.&.@.&.&.&.@.@.@.*.t.t.t.q.<.<.<.<.2.<.<.<.<.,.X.k.x x x v K s.2.~ ~.H x x c H H H H H H H H H H H H ",
"H H H H H H H H H H H H H H H H H J.' E `.m x x m H H  XE &.&.&.@.2.[.w.0.0.(.t.w.w.[.w.e.e.[.w.<.<.<.<.>.7.d.x x x m H $X) ~ XXD x x c H H H H H H H H H H H H ",
"H H H H H H H H H H H H H H H H H K ^.E Q .Xx x c H H oXE &.@.&.@.@.2.{.{.{.t.t.t.w.w.[.{.{.w.5.<.<.<.<.../.n x x x M H.<.) <.F.v x x m H H H H H H H H H H H H ",
"H H H H H H H H H H H H H H H H H H T.Q ! ] I.x x v H Y.] &.@.&.&.@.@.&.w.[.t.t.w.t.w.t.[.q.*.*.<.<.<.<._ ).x x x x H.7._ ~ @XM x x x M H H H H H H H H H H H H ",
"H H H H H H H H H H H H H H H H H F K XXU ! R oXx x m K.$.[ &.@.&.&.@.@.} q.t.t.w.w.[.t.8.*.<.<.<.<.<.<.(  Xx x x l.r.) ~ _.G x x x v H H H H H H H H H H H H H ",
"H H H H H H H H H H H H H H H H H H H H OXE E E !.i.x b ^.! &.&.&.&.&.&.{ 2.{.w.t.w.[.t.2.*.<.<.<.<.<.<.( T.x x I.>._ ~ ^.a.x x x x F H H H H H H H H H H H H H ",
"H H H H H H H H H H H H H H H H H H H H H .X] E E ;.k.x M.U &.&.&.&.&.@.@.q.[.[.[.[.w.[.0.*.<.<.<.<.<.>.<.i.n !.) ~ ( ).u.x x x x F H H H H H H H H H H H H H H ",
"H H H H H H H H H H H H H H H H H H H H H H U.;.E U ] x.#X] @.@.@.&.@.@.-.[.{.w.2.q.[.{.e.*.<.<.<.<.<...).L.^.~ ~ >.$Xv x x x c D H H H H H H H H H H H H H H H ",
"H H H H H H H H H H H H H H H H H H H H H H H s.+X` U [ ].:.&.&.&.&.@.@.2.|.e.@.} *.4.[.[.3.*.<.<.<.<.X./.r.~ ( ^.L.c x x x m M H H H H H H H H H H H H H H H H ",
"H H H H H H H H H H H H H H H H H H H H H H H H H L.^.U E &.&.&.@.&.&.@.w.0.@.@.*.<.*.<.(.q.*.<.<.<.<.2...~ 2.x.b x x x c m H H H H H H H H H H H H H H H H H H ",
"H H H H H H H H H H H H H H H H H H H H H H H H H F F Y.$.E &.&.&.&.&.&.=.@.@.@.*.<.<.*.6.5.<.<.<.<.2._ O. Xg.x x x x m F F H H H H H H H H H H H H H H H H H H ",
"H H H H H H H H H H H H H H H H H H H H H H H H H H H H j.!.R &.@.&.&.@.@.@.@.@.-.1.<.<.<.<.<.<.<.<.../.f.c x x x v D H H H H H H H H H H H H H H H H H H H H H ",
"H H H H H H H H H H H H H H H H H H H H H H H H H H H H H F OXE &.@.&.@.&.@.@.@.*.<.<.<.<.<.<.<.<.O.r.y.x x x x m F F H H H H H H H H H H H H H H H H H H H H H ",
"H H H H H H H H H H H H H H H H H H H H H H H H H H H H H H OXT | &.&.@.@.@.&.@.-.<.<.<.<.<.<.<.<.~ (.x x x c F H H H H H H H H H H H H H H H H H H H H H H H H ",
"H H H H H H H H H H H H H H H H H H H H H H H H H H H H H R.OXR.@.! -.@.&.&.&.@.*.<.<.<.<.<.<.>.~ +XOX#Xb x x H H H H H H H H H H H H H H H H H H H H H H H H H ",
"H H H H H H H H H H H H H H H H H H H H H H H H H H H H H G.H H U.' E &.&.&.@.@.*.<.<.<.<.3...~ ~.x x f.x c v v H H H H H H H H H H H H H H H H H H H H H H H H ",
"H H H H H H H H H H H H H H H H H H H H H H H H H H H H H H H H H k.B.U ! [ @.@.-.<.<.o...( *.Y.c x x x x F K m H H H H H H H H H H H H H H H H H H H H H H H H ",
"H H H H H H H H H H H H H H H H H H H H H H H H H H H H H H H H H H K T.Q.:.@.@.&.6.,.<.^.oXd.x x x c v H H H H H H H H H H H H H H H H H H H H H H H H H H H H ",
"H H H H H H H H H H H H H H H H H H H H H H H H H H H H H H H H H H H H H s.XX` &.>.^.g.b x x x x v D H H H H H H H H H H H H H H H H H H H H H H H H H H H H H ",
"H H H H H H H H H H H H H H H H H H H H H H H H H H H H H H H H H H H H H H U.` O.) ).x x x x M F H H H H H H H H H H H H H H H H H H H H H H H H H H H H H H H ",
"H H H H H H H H H H H H H H H H H H H H H H H H H H H H H H H H H H H H H H .X` &.../.b x x c H H H H H H H H H H H H H H H H H H H H H H H H H H H H H H H H H ",
"H H H H H H H H H H H H H H H H H H H H H H H H H H H H H H H H H H H H H H  XU &.>.9.y.x x x H H H H H H H H H H H H H H H H H H H H H H H H H H H H H H H H H ",
"H H H H H H H H H H H H H H H H H H H H H H H H H H H H H H H H H H H H H H !.Q O.>.7.i.x x x F H H H H H H H H H H H H H H H H H H H H H H H H H H H H H H H H ",
"H H H H H H H H H H H H H H H H H H H H H H H H H H H H H H H H H H H H H H '.Q &.>.<.k.x x x D H H H H H H H H H H H H H H H H H H H H H H H H H H H H H H H H ",
"H H H H H H H H H H H H H H H H H H H H H H H H H H H H H H H H H H H H H J V.Q -.<...I.x x x m H H H H H H H H H H H H H H H H H H H H H H H H H H H H H H H H ",
"H H H H H H H H H H H H H H H H H H H H H H H H H H H H H H H H H H H H H s.:.] &.2.( oXx x x v H H H H H H H H H H H H H H H H H H H H H H H H H H H H H H H H ",
"H H H H H H H H H H H H H H H H H H H H H H H H H H H H H H H H H H H H H U.{ | &.<._ ).x x x b H H H H H H H H H H H H H H H H H H H H H H H H H H H H H H H H ",
"H H H H H H H H H H H H H H H H H H H H H H H H H H H H H H H H H H H H H XXQ @.-.<.../.b x x c H H H H H H H H H H H H H H H H H H H H H H H H H H H H H H H H ",
"H H H H H H H H H H H H H H H H H H H H H H H H H H H H H H H H H H H H H `.E &.-.5.,.2.d.x x x F H H H H H H H H H H H H H H H H H H H H H H H H H H H H H H H ",
"H H H H H H H H H H H H H H H H H H H H H H H H H H H H H H H H s.K.!.OX+X#.{ @.@.&.*.] `.OXC.C.f.K H H H H H H H H H H H H H H H H H H H H H H H H H H H H H H ",
"H H H H H H H H H H H H H H H H H H H H H H H H H H H H H H M E.o.o.^ ^ / o.3.1.1.1.1.1._ ^ ^ ^ ,.}.v v D F H H H H H H H H H H H H H H H H H H H H H H H H H H ",
"H H H H H H H H H H H H H H H H H H H H H H H H H H H H a.x B Z L S A A A A A A A A A A A A A A z S B y u n K H H H H H H H H H H H H H H H H H H H H H H H H H ",
"H H H H H H H H H H H H H H H H H H H H H H H H H H H H g . @ + qXk o - ; ; ; ; ; ; ; ; ; ; ; ; : & @ < @ d m m m F H H H H H H H H H H H H H H H H H H H H H H ",
"H H H H H H H H H H H H H H H H H H H H H H H H H H H H g @ 1 > l p & > : > > > < : > > > > > : > 1 3 3 & f x x x m H H H H H H H H H H H H H H H H H H H H H H ",
"H H H H H H H H H H H H H H H H H H H H H H H H H H H H g @ 1 1 + a >X;X;X;Xz.Z.Z.Z.Z.-X-X-X:X;X8 = 1 2 % B x x x m H H H H H H H H H H H H H H H H H H H H H H ",
"H H H H H H H H H H H H H H H H H H H H H H H H H H H H g # 2 2 o j wX6X2X<X<X,X,X,X,X1X2X6X8X0X8 : 3 3 % d x x x v H H H H H H H H H H H H H H H H H H H H H H ",
"H H H H H H H H H H H H H H H H H H H H H H H H H H H H h * 2 2 @ j 8X3X%X%XD.A.A.A.A.%X%X%X2X3X8 $ 3 3 & B x x x m H H H H H H H H H H H H H H H H H H H H H H ",
"H H H H H H H H H H H H H H H H H H H H H H H H H H H H V $ 2 2 + h 9X2X2X,X,X&X&X&X&X,X<X<X7X7X8 > 2 1 , B x x x m H H H H H H H H H H H H H H H H H H H H H H ",
"H H H H H H H H H H H H H H H H H H H H H H H H H f 9 t 6 , < < : 4 i i i e w w w w w w w e e i 2 < < > < 4 9 9 u m H F H H H H H H H H H H H H H H H H H H H H ",
"H H H H H H H H H H H H H H H H H H H H H H H H H q X # & < , > < &     o O O O O O O O O O X O % < = , , & % X i c v v m H H H H H H H H H H H H H H H H H H H ",
"H H H H H H H H H H H H H H H H H H H H H H H H H 9 X & % % % % % % % % % % % % % % & % % % % % % % % % % % % X r x x x v H H H H H H H H H H H H H H H H H H H ",
"H H H H H H H H H H H H H H H H H H H H H H H H H y 7 9 0 5 4 4 4 4 4 4 9 5 5 5 5 5 5 5 9 5 5 5 5 5 5 5 5 5 5 7 y x x x v H H H H H H H H H H H H H H H H H H H ",
"H H H H H H H H H H H H H H H H H H H H H H H H K F H H H v c c c c c c c c c c c c c c c c c c c c c c c c c c c c c c m H H H H H H H H H H H H H H H H H H H ",
"H H H H H H H H H H H H H H H H H H H H H H H H F H H H H H H H H H H H H H H H H H H H H H H H H H H H H H H H H H H H H H H H H H H H H H H H H H H H H H H H ",
"H H H H H H H H H H H H H H H H H H H H H H H H F H H H H H H H H H H H H H H H H H H H H H H H H H H H H H H H H H H H H H H H H H H H H H H H H H H H H H H H ",
"H H H H H H H H H H H H H H H H H H H H H H H H H H H H H H H H H H H H H H H H H H H H H H H H H H H H H H H H H H H H H H H H H H H H H H H H H H H H H H H H ",
"H H H H H H H H H H H H H H H H H H H H H H H H H H H H H H H H H H H H H H H H H H H H H H H H H H H H H H H H H H H H H H H H H H H H H H H H H H H H H H H H ",
"H H H H H H H H H H H H H H H H H H H H H H H H H H H H H H H H H H H H H H H H H H H H H H H H H H H H H H H H H H H H H H H H H H H H H H H H H H H H H H H H ",
"H H H H H H H H H H H H H H H H H H H H H H H H H H H H H H H H H H H H H H H H H H H H H H H H H H H H H H H H H H H H H H H H H H H H H H H H H H H H H H H H ",
"H H H H H H H H H H H H H H H H H H H H H H H H H H H H H H H H H H H H H H H H H H H H H H H H H H H H H H H H H H H H H H H H H H H H H H H H H H H H H H H H ",
"H H H H H H H H H H H H H H H H H H H H H H H H H H H H H H H H H H H H H H H H H H H H H H H H H H H H H H H H H H H H H H H H H H H H H H H H H H H H H H H H ",
"H H H H H H H H H H H H H H H H H H H H H H H H H H H H H H H H H H H H H H H H H H H H H H H H H H H H H H H H H H H H H H H H H H H H H H H H H H H H H H H H ",
"H H H H H H H H H H H H H H H H H H H H H H H H H H H H H H H H H H H H H H H H H H H H H H H H H H H H H H H H H H H H H H H H H H H H H H H H H H H H H H H H ",
"H H H H H H H H H H H H H H H H H H H H H H H H H H H H H H H H H H H H H H H H H H H H H H H H H H H H H H H H H H H H H H H H H H H H H H H H H H H H H H H H ",
"H H H H H H H H H H H H H H H H H H H H H H H H H H H H H H H H H H H H H H H H H H H H H H H H H H H H H H H H H H H H H H H H H H H H H H H H H H H H H H H H ",
"H H H H H H H H H H H H H H H H H H H H H H H H H H H H H H H H H H H H H H H H H H H H H H H H H H H H H H H H H H H H H H H H H H H H H H H H H H H H H H H H ",
"H H H H H H H H H H H H H H H H H H H H H H H H H H H H H H H H H H H H H H H H H H H H H H H H H H H H H H H H H H H H H H H H H H H H H H H H H H H H H H H H "
};
