/* XPM */
static char *_9f9edb365b3425be5660728bed3b9c52gQzRcw6GvmoBcdm[] = {
/* columns rows colors chars-per-pixel */
"80 80 241 2 ",
"   c #06070C",
".  c #070812",
"X  c #140E12",
"o  c #181416",
"O  c #1A1919",
"+  c #231D1F",
"@  c #100E22",
"#  c #201D26",
"$  c #1F2020",
"%  c #242323",
"&  c #2C2629",
"*  c #2E2729",
"=  c #2F3523",
"-  c #373C2C",
";  c #383E2C",
":  c #3B432B",
">  c #564D3A",
",  c #515C3A",
"<  c #5B6F38",
"1  c #637A39",
"2  c #555046",
"3  c #6B7C49",
"4  c #797259",
"5  c #656366",
"6  c #A97A28",
"7  c #A97A29",
"8  c #AC7D2C",
"9  c #24862B",
"0  c #6D9421",
"q  c #6F9822",
"w  c #68922D",
"e  c #6E982A",
"r  c #709723",
"t  c #729B22",
"y  c #74992B",
"u  c #769C35",
"i  c #76A124",
"p  c #79A525",
"a  c #7EAC25",
"s  c #7BA339",
"d  c #269D5A",
"f  c #0AB775",
"g  c #768E4E",
"h  c #77A347",
"j  c #7AAB57",
"k  c #4EB868",
"l  c #6FB76D",
"z  c #79C15E",
"x  c #67C27C",
"c  c #76C878",
"v  c #B08817",
"b  c #B48C16",
"n  c #A58537",
"m  c #A1993C",
"M  c #80AF27",
"N  c #82B127",
"B  c #85B32C",
"V  c #84A738",
"C  c #8BB537",
"Z  c #97B333",
"A  c #A7AD27",
"S  c #EB8F00",
"D  c #F49900",
"F  c #F4A400",
"G  c #F3AB00",
"H  c #FAA800",
"J  c #F6B300",
"K  c #FAB400",
"L  c #F5BC00",
"P  c #FABC00",
"I  c #F2B318",
"U  c #D6B322",
"Y  c #F0BA2F",
"T  c #F6C301",
"R  c #F9C401",
"E  c #FCCC01",
"W  c #F6C60C",
"Q  c #F5C718",
"!  c #FAD51D",
"~  c #F5CA25",
"^  c #F8DC28",
"/  c #F0CF3D",
"(  c #FCE22C",
")  c #FDE631",
"_  c #92914E",
"`  c #A69146",
"'  c #86A846",
"]  c #99AA49",
"[  c #89B747",
"{  c #9AB846",
"}  c #88AA56",
"|  c #89B953",
" . c #93B45A",
".. c #A3A94D",
"X. c #ADB750",
"o. c #A8B854",
"O. c #87B26A",
"+. c #98B868",
"@. c #9EBD73",
"#. c #AABE6C",
"$. c #BFAC7C",
"%. c #DCAB42",
"&. c #DDAE49",
"*. c #D9B14A",
"=. c #C7B252",
"-. c #D2B965",
";. c #C0AC7B",
":. c #EABD65",
">. c #9DC151",
",. c #A8C358",
"<. c #B6C25C",
"1. c #9ED07D",
"2. c #B8C765",
"3. c #A9C570",
"4. c #D4CA55",
"5. c #D9C856",
"6. c #E5C949",
"7. c #E8D04A",
"8. c #F1CD55",
"9. c #F3E358",
"0. c #C7C966",
"q. c #D5C865",
"w. c #CFD16A",
"e. c #C9CD77",
"r. c #D7CD74",
"t. c #D6D279",
"y. c #E7C46C",
"u. c #FCCB65",
"i. c #FED26C",
"p. c #E9D27B",
"a. c #FED373",
"s. c #FCD77A",
"d. c #FED47C",
"f. c #F6E278",
"g. c #0EB991",
"h. c #39B8B5",
"j. c #719C8C",
"k. c #58AB95",
"l. c #67B88B",
"z. c #73B191",
"x. c #6E97B7",
"c. c #789FB8",
"v. c #50B9AA",
"b. c #77B1AE",
"n. c #00C48C",
"m. c #0CCB98",
"M. c #26CA9C",
"N. c #32CA98",
"B. c #10D1A9",
"V. c #26CDA2",
"C. c #2CCDA3",
"Z. c #3ACFA6",
"A. c #2BD2A6",
"S. c #35D5AA",
"D. c #37DEB6",
"F. c #3CDBB5",
"G. c #1BE4BC",
"H. c #2CE2BB",
"J. c #39E3BA",
"K. c #50C895",
"L. c #72CA8C",
"P. c #46DDB7",
"I. c #51D4B0",
"U. c #6AD4AD",
"Y. c #47E2BF",
"T. c #48E2BF",
"R. c #44EABC",
"E. c #0EB7CC",
"W. c #00B9D6",
"Q. c #2ABFD9",
"!. c #02BBEA",
"~. c #658FD9",
"^. c #6C97D0",
"/. c #6FA7CB",
"(. c #13D6C7",
"). c #09C3DD",
"_. c #2DCDD6",
"`. c #39E7C5",
"'. c #04C4E7",
"]. c #18C6E5",
"[. c #09C8F7",
"{. c #2CC9E6",
"}. c #28C9E9",
"|. c #34CCE8",
" X c #34CEF1",
".X c #4FCCD2",
"XX c #77D0C7",
"oX c #69D5D8",
"OX c #44E5C3",
"+X c #4AE5C2",
"@X c #50E5C5",
"#X c #50D2E3",
"$X c #4AD5FC",
"%X c #54D7FA",
"&X c #69DBEA",
"*X c #90AC96",
"=X c #A4BB85",
"-X c #8B9EAE",
";X c #8FAEB5",
":X c #A1BDB9",
">X c #C1AE81",
",X c #EFB6B8",
"<X c #8AC989",
"1X c #98D08F",
"2X c #ADC690",
"3X c #A4DB99",
"4X c #91D1AD",
"5X c #B0CFB5",
"6X c #AFE6B5",
"7X c #ABE5B9",
"8X c #CFCC8A",
"9X c #E7D88A",
"0X c #F8D785",
"qX c #FED984",
"wX c #FFDD8C",
"eX c #ECDC97",
"rX c #F7DD96",
"tX c #FDDE93",
"yX c #FCE18A",
"uX c #F3E097",
"iX c #FFE294",
"pX c #FEE39B",
"aX c #D1D5AC",
"sX c #FEE4A2",
"dX c #FDE9A7",
"fX c #FAF1B3",
"gX c #8FACD6",
"hX c #A6B7C5",
"jX c #ADC4C2",
"kX c #9AE6D2",
"lX c #ABEFCE",
"zX c #8DEDEA",
"xX c #96F8F4",
"cX c #B4FDEF",
"vX c #BEFFEF",
"bX c #A7FCF3",
"nX c #B4FFF1",
"mX c #BAFFF1",
"MX c #C2FFEE",
"NX c #C4FFF3",
"BX c #F9F9E1",
/* pixels */
"N N N N N N N N N N N N N N N N N N N N N N N N N N N N N N N N N N N N N N N N N N N N N N N N N N N N N N N N N N N N N N N N N N N N N N N N N N N N N N N N ",
"N N N N N N N N N N N N N N N N N N N N N N N N N N N N N N N N N N N N N N N N N N N N N N N N N N N N N N N N N N N N N N N N N N N N N N N N N N N N N N N N ",
"N N N N N N N N N N N N N N N N N N N N N N N N N N N N N N N N N N N N N N N N N N N N N N N N N N N N N N N N N N N N N N N N N N N N N N N N N N N N N N N N ",
"N N N N N N N N N N N N N N N N N N N N N N N N N N N N N N N N N N N N N N N N N N N N N N N N N N N N N N N N N N N N N N N N N N N N N N N N N N N N N N N N ",
"N N N N N N N N N N N N N N N N N N N N N N N N N N N N N N B N M Z N N N N N N N N N N N N N N N N N N N N N N N N N N N N N N N N N N N N N N N N N N N N N N ",
"N N N N N N N N N N N N N N N N N N N N N N N N N N N N N N a a N ..Z ] ` ] C N N M N N N N N N N N N N N N N N N N N N N N N N N N N N N N N N N N N N N N N N ",
"N N N N N N N N N N N N N N N N N N N N N N N N N N N N N N N o...` ` n n n ` _ V B N N N N N N N N N N N N N N N N N N N N N N N N N N N N N N N N N N N N N N ",
"N N N N N N N N N N N N N N N N N N N N N N N N N N N N N N ] ` 6 8 6 6 n 6 n 6 n u M N N N N N N N N N N N N N N N N N N N N N N N N N N N N N N N N N N N N N ",
"N N N N N N N N N N N N N N N N N N N N N N N N N N N N a ] n 6 8 8 _ g _ _ 7 7 6 n t r M N N N N N N N N N N N N N N N N N N N N N N N N N N N N N N N N N N N ",
"N N N N N N N N N N N N N N N N N N N N N N N N N N N N Z n _ z.b.z.%X%XoX&XoXj.k.3 m r r M N N N N N N N N N N N N N N N N N N N N N N N N N N N N N N N N N N ",
"N N N N N N N N N N N N N N N N N N N N N N N N N N N N B <X%X%X$X%X%X%X$X%X$X X[.|.` r 0 M N N N N N N N N N N N N N N N N N N N N N N N N N N N N N N N N N N ",
"N N N N N N N N N N N N N N N N N N N N N N N N N N N N B #X%X%X$X$X%X%X$X$X$X}.].[.O.r 0 t N N N N N N N N N B N N N N N N N N N N N N N N N N N N N N N N N N ",
"N N N N N N N N N N N N N N N N N N N N N N N N N N N N N oX$X%X&X&XXXXXXXzX&X{.[.[.h 0 0 M N N N N N N N N N a N N N N N N N N N N N N N N N N N N N N N N N N ",
"N N N N N N N N N N N N N N N N N N N N N N N N ,.=.*.%.&.[ b.aXrXtXa.qXqX0XpXdX2Xv.w 0 0 &.&.&.&.*.%.%.&.&.&.*.0.N N N N N N N N N N N N N N N N N N N N N N N ",
"N N N N N N N N N N N N N N N N N N N N N N N N 0.S D D D D ..iXpXpXdXpXtXrXtXdXu._ 0 r r F F F F F I Y D F F D Y 0 r t i N N N N N N N N N N N N N N N N N N N ",
"N N N N N N N N N N N N N N N N N N N N N N N N N / H P { r.-.tXsXtXpXpXtXsXsXdX-.=.X.r E E W E E E / 9.E E E R #.0 0 0 r N N N N N N N N N N N N N N N N N N N ",
"N N N N N N N N N N N N N N N N N N B B <.4.6.*.2.6.H J e.pX9XtXpXpXpXpXtXpXpXdX:.8.a.e t R R R R T R R T T T T 0.<.6.0.X.C a N N N N N N N N N N N N N N N N N ",
"N N N N N N N N N N N N N N N N N N C 5.F D F J I I J J ,.iXpXsXpXpXpXpXpXpXpXsXqXu.-.0 0 0 W R W ~ P R ~ dX6.R W T L G L 6.' i p N N N N N N N N N N N N N N N ",
"N N N N N N N N N N N N N N N N N N q.D H 0.,.s y #.I G J ,.0XpXpXpXpXtXpXpXpXtXa.-.0 0 0 N R T 8.yXL R Q 0XQ 6. .]  .2.T G 7.y 0 0 a N N N N N N N N N N N N N ",
"N N N N N N N N N N N N N N N N N >.J F w.N t 0 q t 6.F J J J 9XpXtXpXpXpXpXsXqXX.0 0 0 A P R ~ fXBX9.W T L L #.0 0 0 t 2.L L <.0 0 0 N N N N N N N N N N N N N ",
"N N N N N N N N N N N N N N N N a 0.F J >.a 0 0 t B q.G K K J 2.iXpXpXpXpXpXpXs.0 0 0 L R R R R f.fXQ E R P ~ V 0 0 0 i C 7.J 4.i 0 0 p N N N N N N N N N N N N ",
"N N N N N N N N N N N N N N N N N 0.D Y { i 0 0 p N 2.G H J J J rXpXpXpXsXsXa.X.0 0 0 R R R R R ~ 7.L R R L 5.e 0 0 0 N N 7.L 7.N q 0 t N N N N N N N N N N N N ",
"N N N N N N N N N N N N N N N N N 0.F G ,.q 0 0 M N Z / H J J J { wXpXsXpXa.-.0 0 0 W P R R R R W Q P R R L <.t 0 0 t N C 7.J 7.N q 0 q N N N N N N N N N N N N ",
"N N N N N N N N N N N N N N N N a 0.G G 2.i 0 0 p N M 5.F K J J K { i.a.i.X.0 0 0 A ^ T T R R W E E R R R L o.r 0 0 i N >.Q K w.a q 0 t N N N N N N N N N N N N ",
"N N N N N N N N N N N N N N N N N ,.L H 5.i e 0 p N N 5.F J J K G Q u.u.:.y 0 0 ! ( ( ^ ^ ^ ( ( W T T R R Q ] 0 0 0 p a w.L L 0.a 0 0 q a N N N N N N N N N N N ",
"N N N N N N N N N N N N N N N N N B 6.F G 0.0 0 r M a 0.G G J A [ q.a.qXi.=.u 0 ( ( ( ( ) ( ( W R R R R P 7.u 0 0 0 p ,.T L W >.i 0 0 i N N N N N N N N N N N N ",
"N N N N N N N N N N N N N N N N N N 2.F H G 2.0 0 i N 2.F >.L.OXI.e.qXqXs.8XI.K.l ( ( ( ) ! T R R R T R P 6.0 0 0 0 ,.~ P J w.a 0 0 q a N N N N N N N N N N N N ",
"N N N N N N N N N N N N N N N N N N M w.D H F 0.0 q p ,.c J.J.R.`.`.I.U.I.`.`.`.J.L.0 ( ! T T T R R T W P 4.0 0 0 o.W L J 7.C 0 0 0 t N N N N N N N N N N N N N ",
"N N N N N N N N N N N N N N N N N N N N q.F H F 4.' 0 L.J.J.T.Y.T.`.`.`.`.OXY.Y.R.J.U.Z U T R R R R E T L 2.t 0 2.L P L / [ 0 0 q q a N N N N N N N N N N N N N ",
"N N N N N N N N N N N N N N N N N N N N N 0.G H F C U.J.Y.Y.T.Y.T.OXY.Y.OXY.Y.Y.T.T.S.I.h t R T R T R R W h u 4.L L L 7.' 0 0 0 q a N N N N N N N N N N N N N N ",
"N N N N N N N N N N N N N N N N N N N N N N 2.Y [ P.D.Y.Y.Y.Y.Y.T.T.Y.T.Y.Y.Y.Y.T.T.T.J.P.h 0 T T T [ } O.O.} L K L w.y 0 0 0 t a N N N N N N N N N N N N N N N ",
"N N N N N N N N N N N N N N N N N N N N N N a [ I.J.T.Y.Y.Y.T.Y.T.Y.Y.Y.T.T.Y.Y.T.T.T.OXD.F.h 0 } b.;XhXhX5X;X-X} 3.0 0 0 0 t N N N N N N N N N N N N N N N N N ",
"N N N N N N N N N N N N N N N N N N N N N N N I.D.+X+XOX+XF.Y.+XY.Y.T.Y.Y.Y.T.Y.T.T.T.T.T.J.I.*X;X:X3.3.@.} ' 2XgXh q 0 q a a N N N N N N N N N N N N N N N N N ",
"N N N N N N N N N N N N N N N N N N N N N N U.H.`.OXP.+XF.V.P.+XY.T.Y.Y.T.Y.Y.T.Y.R.R.T.R.R././.+.y @.}  .+.@.+.5X;X0 q N N N N N N N N N N N N N N N N N N N N ",
"N N N N N N N N N N N N N N N N N N a N N >.n.n.U.`.+XP.V.C.S.+XT.T.T.Y.Y.Y.T.@XS.A.Y.@XJ..X/.M.*X} O.+.+.2X3. .3.gXa t t N N N N N N N N N N N N N N N N N N N ",
"N N N N N N N N N N N N N N N N N N B B a s m.k 0X1XOXZ.K.C.C.F.+XT.Y.T.Y.Y.Y.+XC.l.I.J.S.;Xv.Z.=X=X .+.2X[ @. .2XgXa N 0 N N N N N N N N N N N N N N N N N N N ",
"N N N N N N N N N N N N N N N N N N N N N N B 9XtXq.n.l 0 C.V.A.Y.+XY.Y.Y.Y.+XY.M.e j n.L.,X5X=X} +. . .} @.[ +.gXc.N N 0 N N N N N N N N N N N N N N N N N N N ",
"N N N N N N N N N N N N N N N N N N N N N N o.pX0Xf n.w 0 K.V.C.S.+XOXOXY.+X+XA.C.e 0 M.f jX,XaX' }  .@.+.[ 3.;X~.[ N 0 t N N N N N N N N N N N N N N N N N N N ",
"N N N N N N N N N N N N N N N N N N N N N N eXqX<.k h 0 q K.V.A.C.F.+X+X+X+XA.V.Z.e 0 0 [ c.gXaX+.u }  .+.2XgX~.O.N t 0 N N N N N N N N N N N N N N N N N N N N ",
"N N N N N N N N N N N N N N N N N N N N N ,.iXp.N 0 0 t p x V.A.C.F.@X+X+XS.V.V.K.0 0 } gX*X=X^.gXhX:X:XgX^.x.} i 0 0 N N N N N N N N N N N N N N N N N N N N N ",
"N N N N N N N N N N N N N N N N N N N N N w.yX9X<.' r M M z M.V.A.Y.OXD.S.C.V.m.x t *X~.O.a ,.8X-Xx.^.x.j.j t 0 0 t N N N N N N N N N N N N N N N N N N N N N N ",
"N N N N N N N N N N N N N N N N N N N N N >.9XiXiXiX9Xe.o.[ B.B.V.S.Z.M.N.B.Z.<X3.-Xx.s Z r.s.i.{ p 0 0 e r t p N N N N N N N N N N N N N N N N N N N N N N N N ",
"N N N N N N N N N N N N N N N N N N N N N N B ,.t.rXpXiXiXwX2XU.Z.B.B.(.(.I.rXsXyX8Xu r.i.i.y.{ i 0 r M M M N N N N N N N N N N N N N N N N N N N N N N N N N N ",
"N N N N N N N N N N N N N N N N N N N N N N N a N N { 2.r.pXiXtXpX6XoX|.g.l fXrXpXyXa.i.q.{ i 0 0 t N N N M N N N N N N N N N N N N N N N N N N N N N N N N N N ",
"N N N N N N N N N N N N N N N N N N N N N N N N N N N N N .XoX5XpXsXrXsX9 9 aXdX2X#...u 0 0 0 p N N N N N N N N N N N N N N N N N N N N N N N N N N N N N N N N ",
"N N N N N N N N N N N N N N N N N N N N N N N N N N N N U.'.'.!._.8XdXrXa.g.].|.'.h.0 0 t 0 0 a N N N N N N N N N N N N N N N N N N N N N N N N N N N N N N N N ",
"N N N N N N N N N N N N N N N N N N N N N N N N a N a O.!.{.{.{.'.d i.i.=X X!.}. XW.k.0 t 0 0 a N N N N N N N N N N N N N N N N N N N N N N N N N N N N N N N N ",
"N N N N N N N N N N N N N N N N N N N N N N N N B B a .X].|.{.|.}.(.l._.[.}. X|.}.}.).u 0 0 0 p N N N N N N N N N N N N N N N N N N N N N N N N N N N N N N N N ",
"N N N N N N N N N N N N N N N N N N N N N N N N N N L.].{.{.{.|.!.W.W.W.W.}.|.{.{.{.).v.0 0 r t N N N N N N N N N N N N N N N N N N N N N N N N N N N N N N N N ",
"N N N N N N N N N N N N N N N N N N N N N N N N N N _.].{.{.|.].W.h.h u l.'.}.{.{.{.}.W.h 0 t r N N N N N N N N N N N N N N N N N N N N N N N N N N N N N N N N ",
"N N N N N N N N N N N N N N N N N N N N N N N N i .X'.{.{.|.{.W.v.0 0 0 0 l Q.].{.{.|.!.E.y 0 0 N N N N N N N N N N N N N N N N N N N N N N N N N N N N N N N N ",
"N N N N N N N N N N N N N N N N N N N N N N N N k.I.#X'.{.{.W.h.0 0 0 i N 8.<X!.{.{.[.|.v.k.0 e M N N N N N N N N N N N N N N N N N N N N N N N N N N N N N N N ",
"N N N N N N N N N N N N N N N N N N N N N N N N +.qXrXXX].).W.y 0 0 r q.q.I H U.).!.#X9Xa.+.0 0 V N N N N N N N N N N N N N N N N N N N N N N N N N N N N N N N ",
"N N N N N N N N N N N N N N N N N N N N N N N a 9XpXiXu.k.W.j 0 0 0 P K L T E E _.I.i.wXsXp.0 0 U 9.t t a N N N N N N N N N N N N N N N N N N N N N N N N N N N ",
"N N N N N N N N N N N N N N N N N N N N N N N ,.uXpXs.u.z.l 0 0 e v v v v v v v | z.9XrXsXwXX.r t b _ < 1 y M N N N N N N N N N N N N N N N N N N N N N N N N N ",
"N N N N N N N N N N N N N N N N N N N N N N a eXpXs.i.V 0 0 0 r hX5 . @ @ @ @ @ @ @ o p.tXsX0Xy 0 o   # X g i p p M N N N N N N N N N N N N N N N N N N N N N N ",
"N N N N N N N N N N N N N N N N N N N N N N <.iXqXq.y 0 0 q * # 5 2 o # # # # # # # # # 0.sXwXX.0 0 & & O 3 0 0 0 i N N N N N N N N N N N N N N N N N N N N N N ",
"N N N N N N N N N N N N N N N N N N N N N N iXiXp.p 0 0 e X * & @ 2 8X=X>X>X;.;.;.$.;.$.=X9XiXd.0 r & & O 1 0 0 0 i N N N N N N N N N N N N N N N N N N N N N N ",
"N N N N N N N N N N N N N N N N N N N N N N t.pXwXV 0 q 3 X * * . 4 fXpXtXtX0X0XqXd.qXqXwXrXwXr.t 0 0 & O 3 0 0 0 i N N N N N N N N N N N N N N N N N N N N N N ",
"N N N N N N N N N N N N N N N N N N N N N N a eXwXp.0 q 4 X * * @ 4 dX0X:.:.:.:.:.:.:.y.t.tXd.C 0 0 t & o g 0 0 0 i N N N N N N N N N N N N N N N N N N N N N N ",
"N N N N N N N N N N N N N N N N N N N N N N N { pXd.o.0 0 o & * X 4 fXtXtXqXqXa.s.a.d.0.pXs.,.t 0 0 & & + g 0 0 r i N N N N N N N N N N N N N N N N N N N N N N ",
"N N N N N N N N N N N N N N N N N N N N N N N N 2.iXp.0 0 % % % # ; 2 2 2 2 > > > > > e.wXr.N 0 0 + % + + : : : 1 p N N N N N N N N N N N N N N N N N N N N N N ",
"N N N N N N N N N N N N N N N N N N N N N N N N B 9Xd.V 0 q $ $ % o   . . . . . . . . pXs.N t 0 0 + + % + o o   , r t t p N N N N N N N N N N N N N N N N N N N ",
"N N N N N N N N N N N N N N N N N N N N N N N N M : wXp.q 0 O O O O O O o O O o O O 2.s.{ a 0 0 o O O O O O O   , r 0 0 t N N N N N N N N N N N N N N N N N N N ",
"N N N N N N N N N N N N N N N N N N N N N N N N N < ,.qXC t t ; : - - - : - : - : : 0Xt.N p 0 ; ; ; ; ; ; ; ; = 1 0 0 0 q a N N N N N N N N N N N N N N N N N N ",
"N N N N N N N N N N N N N N N N N N N N N N N N N N c <XK.l 0 t q q q q q q q q s U.L.x N 0 t r 0 t 0 t q q q q q q q q p N N N N N N N N N N N N N N N N N N N ",
"N N N N N N N N N N N N N N N N N N N N N N N N N N c G.m.x 0 r N N N N a N N N >.J.m.K.r 0 M N N N N N N N N N N N N N N N N N N N N N N N N N N N N N N N N N ",
"N N N N N N N N N N N N N N N N N N N N N N N N N N 1X@XV.U.0 0 a N N N N N N N 1.OXA.4Xr r p N N N N N N N N N N N N N N N N N N N N N N N N N N N N N N N N N ",
"N N N N N N N N N N N N N N N N N N N N N N N N | 7XNXmXxXxX0 0 t N N N N N N N 7XbXcXNXkX} t B N N N N N N N N N N N N N N N N N N N N N N N N N N N N N N N N ",
"N N N N N N N N N N N N N N N N N N N N N N [ 3XmXNXmXxXxXkX0 0 q N N N N N N N 3XmXNXvXmXnX4Xj N N N N N N N N N N N N N N N N N N N N N N N N N N N N N N N N ",
"N N N N N N N N N N N N N N N N N N N N >.3XcXnXMXNXxXzX4Xu 0 0 t N N N N N N N a 1.lXvXmXmXmXmX4XO.M M N N N N N N N N N N N N N N N N N N N N N N N N N N N N ",
"N N N N N N N N N N N N N N N N N N N 1.cXcXmXMXMXxXzXu 0 0 0 a N N N N N N N N a a B 6XnXmXNXmXvXcX<Xp N N N N N N N N N N N N N N N N N N N N N N N N N N N N ",
"N N N N N N N N N N N N N N N N N N N 7XmXcXcXcXxX4Xu 0 0 r M N N N N N N N N N N N N N 3XcXmXcXvXnX4Xe q a B N N N N N N N N N N N N N N N N N N N N N N N N N ",
"N N N N N N N N N N N N N N N N N N N N 3X7XkX4Xl q r r t N N N N N N N N N N N N N N N a >.1X7X7X1Xu 0 q p a N N N N N N N N N N N N N N N N N N N N N N N N N ",
"N N N N N N N N N N N N N N N N N N N N a N N M t t M N N N N N N N N N N N N N N N N N N N N N N N q t a N N N N N N N N N N N N N N N N N N N N N N N N N N N ",
"N N N N N N N N N N N N N N N N N N N N N N N N M N N N N N N N N N N N N N N N N N N N N N N N N N N a N N N N N N N N N N N N N N N N N N N N N N N N N N N N ",
"N N N N N N N N N N N N N N N N N N N N N N N N N N N N N N N N N N N N N N N N N N N N N N N N N N N N N N N N N N N N N N N N N N N N N N N N N N N N N N N N ",
"N N N N N N N N N N N N N N N N N N N N N N N N N N N N N N N N N N N N N N N N N N N N N N N N N N N N N N N N N N N N N N N N N N N N N N N N N N N N N N N N ",
"N N N N N N N N N N N N N N N N N N N N N N N N N N N N N N N N N N N N N N N N N N N N N N N N N N N N N N N N N N N N N N N N N N N N N N N N N N N N N N N N ",
"N N N N N N N N N N N N N N N N N N N N N N N N N N N N N N N N N N N N N N N N N N N N N N N N N N N N N N N N N N N N N N N N N N N N N N N N N N N N N N N N "
};
