/* XPM */
static char *b376389dafbe4bd1f8a259b514fbdbae6EmhOehmAAXzZok4[] = {
/* columns rows colors chars-per-pixel */
"80 80 232 2 ",
"   c #71972A",
".  c #759C2B",
"X  c #789C2D",
"o  c #769B30",
"O  c #7A9D37",
"+  c #7BA42E",
"@  c #7EA92F",
"#  c #77A02E",
"$  c #7DA638",
"%  c #7BAB46",
"&  c #7BB44E",
"*  c #6FAB5B",
"=  c #59BF71",
"-  c #78B368",
";  c #77B978",
":  c #6EAA70",
">  c #7AC374",
",  c #9A853E",
"<  c #8B9638",
"1  c #A1893F",
"2  c #80AB2F",
"3  c #83AE31",
"4  c #85A53D",
"5  c #84AB3C",
"6  c #87AC36",
"7  c #84B031",
"8  c #8CB43C",
"9  c #87B23A",
"0  c #92A53C",
"q  c #9F8943",
"w  c #988744",
"e  c #979847",
"r  c #A48D45",
"t  c #A58F4B",
"y  c #A5934B",
"u  c #A8924C",
"i  c #A39548",
"p  c #A69952",
"a  c #8BAB4C",
"s  c #89AA49",
"d  c #97AB4A",
"f  c #8AB444",
"g  c #8CB14C",
"h  c #86B645",
"j  c #9BBA4A",
"k  c #96B447",
"l  c #87AD58",
"z  c #9AAB54",
"x  c #8CB65B",
"c  c #8BB755",
"v  c #92B654",
"b  c #93B55C",
"n  c #99B75B",
"m  c #ACA159",
"M  c #A3A957",
"N  c #B5A658",
"B  c #A6BE52",
"V  c #A4B459",
"C  c #88A86E",
"Z  c #8BB765",
"A  c #9DBC6C",
"S  c #98B963",
"D  c #83AB77",
"F  c #98B876",
"G  c #A5B762",
"H  c #A3BD7A",
"J  c #CEAE57",
"K  c #CAB563",
"L  c #D9BF73",
"P  c #B2C45E",
"I  c #99C36A",
"U  c #96C576",
"Y  c #B9C469",
"T  c #A6C179",
"R  c #BDC576",
"E  c #C8C86B",
"W  c #D4CB6C",
"Q  c #C8C976",
"!  c #D3CA72",
"~  c #D6D176",
"^  c #E5CD71",
"/  c #EAD177",
"(  c #FFDB7C",
")  c #FBD779",
"_  c #F3D66E",
"`  c #02BB8B",
"'  c #1EB484",
"]  c #2FBB88",
"[  c #4CBE8C",
"{  c #7BBB86",
"}  c #6DB495",
"|  c #53B6BB",
" . c #6DBAA1",
".. c #15C39B",
"X. c #34C79F",
"o. c #2AC99B",
"O. c #1DC4A0",
"+. c #2BCAA8",
"@. c #38CDAC",
"#. c #3FD2B3",
"$. c #57C498",
"%. c #78CA87",
"&. c #69CB99",
"*. c #74CA95",
"=. c #7BD599",
"-. c #6FC38E",
";. c #42CDAE",
":. c #4BCCA8",
">. c #59CCA3",
",. c #4DD1AD",
"<. c #46D0AE",
"1. c #4BCEB3",
"2. c #46CEB0",
"3. c #45D3B2",
"4. c #4BD2B4",
"5. c #4DD4BC",
"6. c #53DABD",
"7. c #59DBBB",
"8. c #5AD0AF",
"9. c #75D5AD",
"0. c #62D7B6",
"q. c #77DBB8",
"w. c #76CCA0",
"e. c #2AAFD6",
"r. c #33B3D4",
"t. c #2EB6E5",
"y. c #3BBCE3",
"u. c #3DBAEC",
"i. c #38B8E7",
"p. c #3BBDF0",
"a. c #35AFEC",
"s. c #7997D6",
"d. c #7292C9",
"f. c #4EB6C6",
"g. c #47BBD6",
"h. c #50B4C6",
"j. c #70AFCB",
"k. c #799AE7",
"l. c #4ABFE8",
"z. c #45BDE6",
"x. c #3FC0E1",
"c. c #4FDEC0",
"v. c #41D5C3",
"b. c #53DEC1",
"n. c #5ADDC3",
"m. c #5BD5C4",
"M. c #58D3D9",
"N. c #73CCCB",
"B. c #77DEC1",
"V. c #47E2C7",
"C. c #56E3C5",
"Z. c #5CE1C5",
"A. c #5EE3CA",
"S. c #56E8CD",
"D. c #53E9D3",
"F. c #54EAD7",
"G. c #4FE8D1",
"H. c #61E4CC",
"J. c #64E5C9",
"K. c #65E9D2",
"L. c #70E7D0",
"P. c #44C1E7",
"I. c #4AC1E7",
"U. c #4CC3E9",
"Y. c #46C0E8",
"T. c #54C8E8",
"R. c #889D96",
"E. c #9DB888",
"W. c #8BA79B",
"Q. c #88AE8D",
"!. c #A6BF96",
"~. c #A4BC84",
"^. c #99B4AA",
"/. c #88A5B8",
"(. c #92ADB0",
"). c #ADBCAC",
"_. c #87CC82",
"`. c #97C894",
"'. c #94D094",
"]. c #A5C384",
"[. c #AAC589",
"{. c #A9C39C",
"}. c #A3D399",
"|. c #AECF87",
" X c #97DAB2",
".X c #87CCB4",
"XX c #B4CAA2",
"oX c #AAC7B7",
"OX c #A6DDB5",
"+X c #B0D0B3",
"@X c #AEE5B8",
"#X c #ABE2AE",
"$X c #D9D389",
"%X c #D0D28D",
"&X c #E5D787",
"*X c #FDD985",
"=X c #FCDC8A",
"-X c #F5DA88",
";X c #E6DA96",
":X c #FFDE94",
">X c #FFD690",
",X c #FEE28B",
"<X c #FFE085",
"1X c #EDE19C",
"2X c #FEE292",
"3X c #FFE69C",
"4X c #FFE99D",
"5X c #F3E29D",
"6X c #FEE6A2",
"7X c #FFE9A3",
"8X c #FFEAAA",
"9X c #FAE4A5",
"0X c #859FD1",
"qX c #95AECD",
"wX c #8DA7D9",
"eX c #86A4D5",
"rX c #93ACD0",
"tX c #A7B6C5",
"yX c #97DBC0",
"uX c #99E6D5",
"iX c #B7F2DC",
"pX c #AEEACD",
"aX c #BDFAEA",
"sX c #A4F3F7",
"dX c #BAFDF6",
"fX c #A8F0E1",
"gX c #99EFF7",
"hX c #C2FAEC",
"jX c #C1FFF5",
"kX c #CAFFF5",
"lX c #CBFFF9",
"zX c #D2FFF9",
/* pixels */
"7 7 7 7 7 7 7 7 7 7 7 7 7 7 7 7 7 7 7 7 7 7 7 7 7 7 7 7 7 7 7 7 7 7 7 7 7 7 7 7 7 7 7 7 7 7 7 7 7 7 7 7 7 7 7 7 7 7 7 7 7 7 7 7 7 7 7 7 7 7 7 7 7 7 7 7 7 7 7 7 ",
"7 7 7 7 7 7 7 7 7 7 7 7 7 7 7 7 7 7 7 7 7 7 7 7 7 7 7 7 7 7 7 7 7 7 7 7 7 8 9 2 3 9 8 3 7 7 7 7 7 7 7 7 7 7 7 7 7 7 7 7 7 7 7 7 7 7 7 7 7 7 7 7 7 7 7 7 7 7 7 7 ",
"7 7 7 7 7 7 7 7 7 7 7 7 7 7 7 7 7 7 7 7 7 7 7 7 7 7 7 7 7 7 7 7 7 7 7 2 8 k p e 4 k M . 8 3 3 7 7 7 7 7 7 7 7 7 7 7 7 7 7 7 7 7 7 7 7 7 7 7 7 7 7 7 7 7 7 7 7 7 ",
"7 7 7 7 7 7 7 7 7 7 7 7 7 7 7 7 7 7 7 7 7 7 7 7 7 7 7 7 7 7 7 7 7 7 7 k m p y r m m y z d @ 3 7 7 7 7 7 7 7 7 7 7 7 7 7 7 7 7 7 7 7 7 7 7 7 7 7 7 7 7 7 7 7 7 7 ",
"7 7 7 7 7 7 7 7 7 7 7 7 7 7 7 7 7 7 7 7 7 7 7 7 7 7 7 7 7 7 7 7 7 7 M u p r t u r r u r M a 4 2 7 7 7 7 7 7 7 7 7 7 7 7 7 7 7 7 7 7 7 7 7 7 7 7 7 7 7 7 7 7 7 7 ",
"7 7 7 7 7 7 7 7 7 7 7 7 7 7 7 7 7 7 7 7 7 7 7 7 7 7 7 7 7 7 7 7 7 M r r r u u u u u y r t e < 3 7 7 7 7 7 7 7 7 7 7 7 7 7 7 7 7 7 7 7 7 7 7 7 7 7 7 7 7 7 7 7 7 ",
"7 7 7 7 7 7 7 7 7 7 7 7 7 7 7 7 7 7 7 7 7 7 7 7 7 7 7 7 7 7 7 7 k p r u u u u u u u u u t y e 4 3 7 7 7 7 7 7 7 7 7 7 7 7 7 7 7 7 7 7 7 7 7 7 7 7 7 7 7 7 7 7 7 ",
"7 7 7 7 7 7 7 7 7 7 7 7 7 7 7 7 7 7 7 7 7 7 7 7 7 7 7 7 7 7 7 7 M , u u u u u u u u u u u r 1 e X 7 7 7 7 7 7 7 7 7 7 7 7 7 7 7 7 7 7 7 7 7 7 7 7 7 7 7 7 7 7 7 ",
"7 7 7 7 7 7 7 7 7 7 7 7 7 7 7 7 7 7 7 7 7 7 7 7 7 7 7 7 7 7 7 7 M 1 u u u u u u u u u u u u u < @ 7 7 7 7 7 7 7 7 7 7 7 7 7 7 7 7 7 7 7 7 7 7 7 7 7 7 7 7 7 7 7 ",
"7 7 7 7 7 7 7 7 7 7 7 7 7 7 7 7 7 7 7 7 7 7 7 7 7 7 7 7 7 7 7 9 p 1 u u t u u u u u u u u u u X @ 7 7 7 7 7 7 7 7 7 7 7 7 7 7 7 7 7 7 7 7 7 7 7 7 7 7 7 7 7 7 7 ",
"7 7 7 7 7 7 7 7 7 7 7 7 7 7 7 7 7 7 7 7 7 7 7 7 7 7 7 7 7 7 7 3 i p u u u u u u u u u u u u u u   2 7 7 7 7 7 7 7 7 7 7 7 7 7 7 7 7 7 7 7 7 7 7 7 7 7 7 7 7 7 7 ",
"7 7 7 7 7 7 7 7 7 7 7 7 7 7 7 7 7 7 7 7 7 7 7 7 7 7 7 7 7 7 7 7 6 u u u u u u u u u u u u u u e X 3 7 7 7 7 7 7 7 7 7 7 7 7 7 7 7 7 7 7 7 7 7 7 7 7 7 7 7 7 7 7 ",
"7 7 7 7 7 7 7 7 7 7 7 7 7 7 7 7 7 7 7 7 7 7 7 7 7 7 7 7 7 7 7 7 0 u u u u u u u u u u u u u w . 7 7 7 7 7 7 7 7 7 7 7 7 7 7 7 7 7 7 7 7 7 7 7 7 7 7 7 7 7 7 7 7 ",
"7 7 7 7 7 7 7 7 7 7 7 7 7 7 7 7 7 7 7 7 7 7 7 7 7 7 7 7 7 7 7 7 N 1 u u u u u u u u t u t r m o 3 7 7 7 7 7 7 7 7 7 7 7 7 7 7 7 7 7 7 7 7 7 7 7 7 7 7 7 7 7 7 7 ",
"7 7 7 7 7 7 7 7 7 7 7 7 7 7 7 7 7 7 7 7 7 7 7 7 7 7 7 7 7 7 7 7 W , u u t u u u u u u u u , K %X+ 7 7 7 7 7 7 7 7 7 7 7 7 7 7 7 7 7 7 7 7 7 7 7 7 7 7 7 7 7 7 7 ",
"7 7 7 7 7 7 7 7 7 7 7 7 7 7 7 7 7 7 7 7 7 7 7 7 7 7 7 7 7 7 7 7 W r t u u u u u u u u u u , L G @ 7 7 7 7 7 7 7 7 7 7 7 7 7 7 7 7 7 7 7 7 7 7 7 7 7 7 7 7 7 7 7 ",
"7 7 7 7 7 7 7 7 7 7 7 7 7 7 7 7 7 7 7 7 7 7 7 7 7 7 7 7 7 7 7 7 8 N q u u u u u u u u u r N |.# 2 7 7 7 7 7 7 7 7 7 7 7 7 7 7 7 7 7 7 7 7 7 7 7 7 7 7 7 7 7 7 7 ",
"7 7 7 7 7 7 7 7 7 7 7 7 7 7 7 7 7 7 7 7 7 7 7 7 7 7 7 7 7 7 7 7 7 7 i u u u u u u u u u r 0 X 7 7 7 7 7 7 7 7 7 7 7 7 7 7 7 7 7 7 7 7 7 7 7 7 7 7 7 7 7 7 7 7 7 ",
"7 7 7 7 7 7 7 7 7 7 7 7 7 7 7 7 7 7 7 7 7 7 7 7 7 7 7 7 7 7 7 7 7 7 0 y u u u u u u t t t   7 7 7 7 7 7 7 7 7 7 7 7 7 7 7 7 7 7 7 7 7 7 7 7 7 7 7 7 7 7 7 7 7 7 ",
"7 7 7 7 7 7 7 7 7 7 7 7 7 7 7 7 7 7 7 7 7 7 7 7 7 7 7 7 7 7 7 7 7 7 7 i r u u u u u r , < 2 7 7 7 7 7 7 7 7 7 7 7 7 7 7 7 7 7 7 7 7 7 7 7 7 7 7 7 7 7 7 7 7 7 7 ",
"7 7 7 7 7 7 7 7 7 7 7 7 7 7 7 7 7 7 7 7 7 7 7 7 7 7 7 7 7 7 7 7 7 7 7 7 p , y u u r t i # 7 7 7 7 7 7 7 7 7 7 7 7 7 7 7 7 7 7 7 7 7 7 7 7 7 7 7 7 7 7 7 7 7 7 7 ",
"7 7 7 7 7 7 7 7 7 7 7 7 7 7 7 7 7 7 7 7 7 7 7 7 7 7 7 7 7 7 7 7 7 7 7 7 k J r w r t Q . 7 7 7 7 7 7 7 7 7 7 7 7 7 7 7 7 7 7 7 7 7 7 7 7 7 7 7 7 7 7 7 7 7 7 7 7 ",
"7 7 7 7 7 7 7 7 7 7 7 7 7 7 7 7 7 7 7 7 7 7 7 7 7 7 7 7 7 7 7 7 7 7 7 7 7 8 K J J W   3 7 7 7 7 7 7 7 7 7 7 7 7 7 7 7 7 7 7 7 7 7 7 7 7 7 7 7 7 7 7 7 7 7 7 7 7 ",
"7 7 7 7 7 7 7 7 7 7 7 7 7 7 7 7 7 7 7 7 7 7 7 7 7 7 7 7 7 7 7 7 7 7 7 7 7 7 ~ *X( / . 3 7 7 7 7 7 7 7 7 7 7 7 7 7 7 7 7 7 7 7 7 7 7 7 7 7 7 7 7 7 7 7 7 7 7 7 7 ",
"7 7 7 7 7 7 7 7 7 7 7 7 7 7 7 7 7 7 7 7 7 7 7 7 7 7 7 7 7 7 7 7 7 7 7 7 7 k *X=X=X*XV % 3 3 3 7 7 7 7 7 7 7 7 7 7 7 7 7 7 7 7 7 7 7 7 7 7 7 7 7 7 7 7 7 7 7 7 7 ",
"7 7 7 7 7 7 7 7 7 7 7 7 7 7 7 7 7 7 7 7 7 7 7 7 7 7 7 7 7 7 7 7 7 7 c *.6.'.*X*X*X>X[.A.0.-.s 2 7 7 7 7 7 7 7 7 7 7 7 7 7 7 7 7 7 7 7 7 7 7 7 7 7 7 7 7 7 7 7 7 ",
"7 7 7 7 7 7 7 7 7 7 7 7 7 2 7 7 7 7 7 7 7 7 7 7 7 7 7 7 7 7 7 7 7 U Z.C.A.S.B.q.q.q.S.S.A.C.A.- @ 7 7 7 7 7 7 7 7 7 7 7 7 7 7 7 7 7 7 7 7 7 7 7 7 7 7 7 7 7 7 7 ",
"7 7 7 7 7 7 7 7 7 7 7 7 7 7 7 7 7 7 7 7 7 7 7 7 7 7 7 7 7 7 7 9 _.Z.C.J.H.S.D.G.F.F.A.H.H.H.Z.Z.; @ 7 7 7 7 7 7 7 7 7 7 7 7 7 7 7 7 7 7 7 7 7 7 7 7 7 7 7 7 7 7 ",
"7 7 7 7 7 7 7 7 7 7 7 7 7 7 7 7 7 7 7 7 7 7 6 2 7 7 7 7 7 7 7 _.C.A.H.A.A.A.A.A.A.A.n.A.A.J.H.C.Z.-.. 7 7 7 7 7 7 7 7 7 7 7 7 7 7 7 7 7 7 7 7 7 7 7 7 7 7 7 7 7 ",
"7 7 7 7 7 7 7 7 7 7 7 7 7 7 7 7 7 7 7 7 7 9 6 4 7 7 7 3 7 7 9.V.A.H.n.A.A.H.A.J.A.J.H.H.A.A.H.H.A.C.9.o 2 7 7 7 7 7 7 7 7 7 7 7 7 7 7 7 7 7 7 7 7 7 7 7 7 7 7 7 ",
"7 7 7 7 7 7 7 7 7 7 7 7 7 7 7 7 7 7 g W./.(.qX .D O 5 3 7 =.V.A.A.A.A.H.H.A.A.A.A.A.A.A.A.A.H.A.A.A.6.9.. 9 7 7 7 7 7 7 7 7 7 7 7 7 7 7 7 7 7 7 7 7 7 7 7 7 7 7 ",
"7 7 7 7 7 7 7 7 7 7 7 7 7 7 7 7 7 E.rX^.E.XXXX{.).eXR.$ =.6.H.J.A.A.H.H.n.A.A.A.A.H.A.A.H.A.A.H.H.A.A.V.*.. 7 7 7 7 7 7 7 7 7 7 7 7 7 7 7 7 7 7 7 7 7 7 7 7 7 7 ",
"7 7 7 7 7 7 7 7 7 7 7 7 7 7 7 7 Z tX~.h v n [.b n ].tXN.C.S.J.A.A.H.H.A.A.A.A.H.A.A.A.A.H.n.6.H.H.J.A.A.6.=.X 6 7 7 7 7 7 7 7 7 7 7 7 7 7 7 7 7 7 7 7 7 7 7 7 7 ",
"7 7 7 7 7 7 7 7 7 7 7 7 7 7 7 7 (.oXS [.T A a A T X }.6.D.G.A.Z.K.n.Z.H.A.A.A.A.J.A.A.A.K.n.2.7.K.H.A.F.G.4.- @ 7 7 7 7 7 7 7 7 7 7 7 7 7 7 7 7 7 7 7 7 7 7 7 7 ",
"7 7 7 7 7 7 7 7 7 7 7 7 7 7 7 7 wX!.l G ].].A A H T w.` 1. XS.K.A.5.5.K.J.A.A.J.A.A.H.H.A.4.4.4.b.K.F. X$.` [ X 7 7 7 7 7 7 7 7 7 7 7 7 7 7 7 7 7 7 7 7 7 7 7 7 ",
"7 7 7 7 7 7 7 7 7 7 7 7 7 7 7 7 wXtXs ].g A [.c |.T `.o.; >XOXG.7.D ,.C.H.A.A.A.A.A.H.K.6.;.4.; 1.V.'.>XH ..- 2 7 7 7 7 7 7 7 7 7 7 7 7 7 7 7 7 7 7 7 7 7 7 7 7 ",
"7 7 7 7 7 7 7 7 7 7 7 7 7 7 7 7 W.wX[.s T A s T z T g XX( 6X1X+.; + ;.b.K.J.A.A.A.A.K.Z.,.3.,.  _.O.F :X7XZ 2 2 7 7 7 7 7 7 7 7 7 7 7 7 7 7 7 7 7 7 7 7 7 7 7 7 ",
"7 7 7 7 7 7 7 7 7 7 7 7 7 7 7 7 f s.qXF S v T x S b S *X,X7X] X.o 3 8.3.A.H.A.A.H.H.H.4.4.<.>.  3 @.' &X9XQ X 2 7 7 7 7 7 7 7 7 7 7 7 7 7 7 7 7 7 7 7 7 7 7 7 7 ",
"7 7 7 7 7 7 7 7 7 7 7 7 7 7 7 7 7 l d.eXE.H v A b h Q ( 7X{.* @ 3 3 &.;.4.A.H.H.A.H.6.2.4.;.-.# 2 h = Z :X6Xs 2 7 7 7 7 7 7 7 7 7 7 7 7 7 7 7 7 7 7 7 7 7 7 7 7 ",
"7 7 7 7 7 7 7 7 7 7 7 7 7 7 7 7 7 7 a d.s.rX).E.E.[./ ,X1Xd.W.+ 7 7 %.@.4.5.H.K.K.H.5.4.4.;.-.# 7 7 7 7 ~ 3X%X  7 7 7 7 7 7 7 7 7 7 7 7 7 7 7 7 7 7 7 7 7 7 7 7 ",
"7 7 7 7 7 7 7 7 7 7 7 7 7 7 7 7 7 7 7 7 C /.s.s.s.0X/ 4XB @ s.eXC 2 I @.5.4.6.n.A.K.n.,.5.<.: @ 7 7 7 8 E 3X1X  7 7 7 7 7 7 7 7 7 7 7 7 7 7 7 7 7 7 7 7 7 7 7 7 ",
"7 7 7 7 7 7 7 7 7 7 7 7 7 7 7 7 7 7 7 7 7 7 $ g l 5 ^ <X;Xk 3 C k.R.& 3.4.4.1.<.4.C.7.1.3.#.$ @ j Y ;X9X7X7X&X. 7 7 7 7 7 7 7 7 7 7 7 7 7 7 7 7 7 7 7 7 7 7 7 7 ",
"7 7 7 7 7 7 7 7 7 7 7 7 7 7 7 7 7 7 7 7 7 7 7 7 7 7 j ^ ) <X~ 4 6 ).;X3.<.,.4.,.,.,.<.4.#.$.Y ;X3X3X4X4X5XQ 5 3 7 7 7 7 7 7 7 7 7 7 7 7 7 7 7 7 7 7 7 7 7 7 7 7 ",
"7 7 7 7 7 7 7 7 7 7 7 7 7 7 7 7 7 7 7 7 7 7 7 7 7 7 7 9 P ^ ) ( E Y 7Xm.v.5.5.5.5.5.5.5.v.M.9X3X7X;XQ V 5 3 7 7 7 7 7 7 7 7 7 7 7 7 7 7 7 7 7 7 7 7 7 7 7 7 7 7 ",
"7 7 7 7 7 7 7 7 7 7 7 7 7 7 7 7 7 7 7 7 7 7 7 7 7 7 7 7 7 7 B W ( ( +Xz.z.U.I.I.l.l.I.I.I.a.N.V k 2 7 7 7 7 7 7 7 7 7 7 7 7 7 7 7 7 7 7 7 7 7 7 7 7 7 7 7 7 7 7 ",
"7 7 7 7 7 7 7 7 7 7 7 7 7 7 7 7 7 7 7 7 7 7 7 7 7 7 7 7 7 7 3 7 7 T x.u.l.Y.l.l.l.l.l.l.I.Y.g.. 2 7 7 7 7 7 7 7 7 7 7 7 7 7 7 7 7 7 7 7 7 7 7 7 7 7 7 7 7 7 7 7 ",
"7 7 7 7 7 7 7 7 7 7 7 7 7 7 7 7 7 7 7 7 7 7 7 7 7 7 7 7 7 7 3 7 7 f.t.T.U.l.U.I.I.I.I.I.I.I.y.h.. 2 7 7 7 7 7 7 7 7 7 7 7 7 7 7 7 7 7 7 7 7 7 7 7 7 7 7 7 7 7 7 ",
"7 7 7 7 7 7 7 7 7 7 7 7 7 7 7 7 7 7 7 7 7 7 7 7 7 7 7 7 7 7 9 3 { e.U.I.U.U.l.Y.I.I.I.I.I.I.U.y.; @ 7 7 7 7 7 7 7 7 7 7 7 7 7 7 7 7 7 7 7 7 7 7 7 7 7 7 7 7 7 7 ",
"7 7 7 7 7 7 7 7 7 7 7 7 7 7 7 7 7 7 7 7 7 7 7 7 7 7 7 7 7 7 7 6 r.y.l.I.P.I.I.I.I.I.I.I.I.I.U.x.l.o 6 3 7 7 7 7 7 7 7 7 7 7 7 7 7 7 7 7 7 7 7 7 7 7 7 7 7 7 7 7 ",
"7 7 7 7 7 7 7 7 7 7 7 7 7 7 7 7 7 7 7 7 7 7 7 7 7 7 7 7 7 7 7 *.e.T.I.I.I.I.I.I.I.I.I.I.I.Y.U.I.g.} + 7 7 7 7 7 7 7 7 7 7 7 7 7 7 7 7 7 7 7 7 7 7 7 7 7 7 7 7 7 ",
"7 7 7 7 7 7 7 7 7 7 7 7 7 7 7 7 7 7 7 7 7 7 7 7 7 7 7 7 7 7 h e.P.I.I.I.l.I.P.I.| I.I.Y.I.I.I.I.P.l.O 3 7 7 7 7 7 7 7 7 7 7 7 7 7 7 7 7 7 7 7 7 7 7 7 7 7 7 7 7 ",
"7 7 7 7 7 7 7 7 7 7 7 7 7 7 7 7 7 7 7 7 7 7 7 7 7 7 7 7 7 7 | e.T.I.I.I.I.I.P.: #  .I.I.I.l.I.I.I.y.h.. 7 7 7 7 7 7 7 7 7 7 7 7 7 7 7 7 7 7 7 7 7 7 7 7 7 7 7 7 ",
"7 7 7 7 7 7 7 7 7 7 7 7 7 7 7 7 7 7 7 7 7 7 7 7 7 7 7 7 7 { r.p.z.U.U.Y.l.I.: + @ 7 ; I.I.I.I.I.z.u.g.} # 7 7 7 7 7 7 7 7 7 7 7 7 7 7 7 7 7 7 7 7 7 7 7 7 7 7 7 ",
"7 7 7 7 7 7 7 7 7 7 7 7 7 7 7 7 7 7 7 7 7 7 7 7 7 7 7 7 3 %./ {.z.u.I.I.[ $ @ 7 7 7 7 % Y.l.U.p.Y.oX-X .. 7 7 7 7 7 7 7 7 7 7 7 7 7 7 7 7 7 7 7 7 7 7 7 7 7 7 7 ",
"7 7 7 7 7 7 7 7 7 7 7 7 7 7 7 7 7 7 7 7 7 7 7 7 7 7 7 7 3 ~ 3X,X$XT.t.(.+ @ 7 7 7 7 7 7 & f.t.M.$X2X7X$X. 7 7 7 7 7 7 7 7 7 7 7 7 7 7 7 7 7 7 7 7 7 7 7 7 7 7 7 ",
"7 7 7 7 7 7 7 7 7 7 7 7 7 7 7 7 7 7 7 7 7 7 7 7 7 7 7 7 j 2X8X8X,X{ f.# 7 7 7 7 7 7 7 7 3 h f.D _ 3X8X4Xs @ 7 7 7 7 7 7 7 7 7 7 7 7 7 7 7 7 7 7 7 7 7 7 7 7 7 7 ",
"7 7 7 7 7 7 7 7 7 7 7 7 7 7 7 7 7 7 7 7 7 7 7 7 7 7 7 9 &X7X7X7X%X: @ 3 3 7 7 7 7 7 7 7 7 7 h ; W ( 4X9X;X. 7 3 7 7 7 7 7 7 7 7 7 7 7 7 7 7 7 7 7 7 7 7 7 7 7 7 ",
"7 7 7 7 7 7 7 7 7 7 7 7 7 7 7 7 7 7 7 7 7 7 7 7 7 7 7 j :X7X7XG @ 7 7 7 7 7 7 7 7 7 7 7 7 7 7 7 7 E ) 4X7Xz @ 3 7 7 7 7 7 7 7 7 7 7 7 7 7 7 7 7 7 7 7 7 7 7 7 7 ",
"7 7 7 7 7 7 7 7 7 7 7 7 7 7 7 7 7 7 7 7 7 7 7 7 7 7 9 / 3X3Xn 2 7 7 7 7 7 7 7 7 7 7 7 7 7 7 7 7 7 7 Y ) 3X;X$ 3 7 7 7 7 7 7 7 7 7 7 7 7 7 7 7 7 7 7 7 7 7 7 7 7 ",
"7 7 7 7 7 7 7 7 7 7 7 7 7 7 7 7 7 7 7 7 7 7 7 7 7 7 j =X7X%X. 7 7 7 7 7 7 7 7 7 7 7 7 7 7 7 7 7 7 7 7 ~ 2X7Xz + 7 7 7 7 7 7 7 7 7 7 7 7 7 7 7 7 7 7 7 7 7 7 7 7 ",
"7 7 7 7 7 7 7 7 7 7 7 7 7 7 7 7 7 7 7 7 7 7 7 7 7 7 8 -X3X1X. 3 7 7 7 7 7 7 7 7 7 7 7 7 7 7 7 7 7 7 9 &X7X3X4 3 7 7 7 7 7 7 7 7 7 7 7 7 7 7 7 7 7 7 7 7 7 7 7 7 ",
"7 7 7 7 7 7 7 7 7 7 7 7 7 7 7 7 7 7 7 7 7 7 7 7 7 7 @ P -X7XQ . 7 7 7 7 7 7 7 7 7 7 7 7 7 7 7 7 7 7 ~ ,X7Xv + 3 7 7 7 7 7 7 7 7 7 7 7 7 7 7 7 7 7 7 7 7 7 7 7 7 ",
"7 7 7 7 7 7 7 7 7 7 7 7 7 7 7 7 7 7 7 7 7 7 7 7 7 7 @ 7 ! ,X6XO 3 7 7 7 7 7 7 7 7 7 7 7 7 7 7 7 7 j =X7XQ # 7 7 7 7 7 7 7 7 7 7 7 7 7 7 7 7 7 7 7 7 7 7 7 7 7 7 ",
"7 7 7 7 7 7 7 7 7 7 7 7 7 7 7 7 7 7 7 7 7 7 7 7 7 7 7 7 3 &X3XR + 7 7 7 7 7 7 7 7 7 7 7 7 7 7 7 7 ! 2X1X  7 7 7 7 7 7 7 7 7 7 7 7 7 7 7 7 7 7 7 7 7 7 7 7 7 7 7 ",
"7 7 7 7 7 7 7 7 7 7 7 7 7 7 7 7 7 7 7 7 7 7 7 7 7 7 7 7 7 j <X9X  7 7 7 7 7 7 7 7 7 7 7 7 7 7 7 7 ,X7Xd @ 7 7 7 7 7 7 7 7 7 7 7 7 7 7 7 7 7 7 7 7 7 7 7 7 7 7 7 ",
"7 7 7 7 7 7 7 7 7 7 7 7 7 7 7 7 7 7 7 7 7 7 7 7 7 7 7 7 7 7 Y ,XG @ 7 7 7 7 7 7 7 7 7 7 7 7 7 7 P ,XG + 3 3 7 7 7 7 7 7 7 7 7 7 7 7 7 7 7 7 7 7 7 7 7 7 7 7 7 7 ",
"7 7 7 7 7 7 7 7 7 7 7 7 7 7 7 7 7 7 7 7 7 7 7 7 7 7 7 7 7 7 7 &X;X  7 7 7 7 7 7 7 7 7 7 7 7 7 7 -X$X  3 7 7 7 7 7 7 7 7 7 7 7 7 7 7 7 7 7 7 7 7 7 7 7 7 7 7 7 7 ",
"7 7 7 7 7 7 7 7 7 7 7 7 7 7 7 7 7 7 7 7 7 7 7 7 7 7 7 7 7 7 7 I 2XZ $ 7 7 7 7 7 7 7 7 7 7 7 h x =XZ 2 3 7 7 7 7 7 7 7 7 7 7 7 7 7 7 7 7 7 7 7 7 7 7 7 7 7 7 7 7 ",
"7 7 7 7 7 7 7 7 7 7 7 7 7 7 7 7 7 7 7 7 7 7 7 7 7 7 7 7 7 8 7 &.>.J.; @ 7 7 7 7 7 7 7 7 7 7 %.:.q.&.X 7 7 3 3 7 7 7 7 7 7 7 7 7 7 7 7 7 7 7 7 7 7 7 7 7 7 7 7 7 ",
"7 7 7 7 7 7 7 7 7 7 7 7 7 7 7 7 7 7 7 7 7 7 7 7 7 7 7 c @XhX].> +.V.D @ 7 7 7 7 7 7 7 7 7 7 %.@.V.; x @X#Xx @ 7 7 7 7 7 7 7 7 7 7 7 7 7 7 7 7 7 7 7 7 7 7 7 7 7 ",
"7 7 7 7 7 7 7 7 7 7 7 7 7 7 7 7 7 7 7 7 7 7 7 7 7 7 7 aXjXjXlXfX7.J. X. 7 7 7 7 7 7 7 7 7 7 B.6.L.pXzXdXjXiX  7 7 7 7 7 7 7 7 7 7 7 7 7 7 7 7 7 7 7 7 7 @ 7 7 7 ",
"7 7 7 7 7 7 7 7 7 7 7 7 7 7 7 7 7 7 7 7 7 7 7 7 7 7 #XjXjXjXdXlXkXkXhX  7 7 7 7 7 7 7 7 7 h sXsXlXjXjXjXjXdX  7 7 7 7 7 7 7 7 7 7 7 7 7 7 7 7 7 7 7 7 7 7 7 7 7 ",
"7 7 7 7 7 7 7 7 7 7 7 7 7 7 7 7 7 7 7 7 7 7 7 7 7 7 }.aXhXjXjXjXkXlXpX. 7 7 7 7 7 7 7 7 7 8 sXgXdXlXjXjXiXU + 7 7 7 7 7 7 7 7 7 7 7 7 7 7 7 7 7 7 7 7 7 7 7 7 7 ",
"7 7 7 7 7 7 7 7 7 7 7 7 7 7 7 7 7 7 7 7 7 7 7 7 7 7 7 8 c c I '.'.U 5 2 7 7 7 7 7 7 7 7 7 7 b  XuX X}.Z @ 7 7 7 7 7 7 7 7 7 7 7 7 7 7 7 7 7 7 7 7 7 7 7 7 7 7 7 ",
"7 7 7 7 7 7 7 7 7 7 7 7 7 7 7 7 7 7 7 7 7 7 7 7 7 7 7 7 7 7 7 7 7 7 7 7 7 7 7 7 7 7 7 7 7 7 7 7 7 7 9 7 7 7 7 7 7 7 7 7 7 7 7 7 7 7 7 7 7 7 7 7 7 7 7 7 7 7 7 7 ",
"7 7 7 7 7 7 7 7 7 7 7 7 7 7 7 7 7 7 7 7 7 7 7 7 7 7 7 7 7 7 7 7 7 7 7 7 7 7 7 7 7 7 7 7 7 7 7 7 7 7 7 7 7 7 7 7 7 7 7 7 7 7 7 7 7 7 7 7 7 7 7 7 7 7 7 7 7 7 7 7 ",
"7 7 7 7 7 7 7 7 7 7 7 7 7 7 7 7 7 7 7 7 7 7 7 7 7 7 7 7 7 7 7 7 7 7 7 7 7 7 7 7 7 7 7 7 7 7 7 7 7 7 7 7 7 7 7 7 7 7 7 7 7 7 7 7 7 7 7 7 7 7 7 7 7 7 7 7 7 7 7 7 ",
"7 7 7 7 7 7 7 7 7 7 7 7 7 7 7 7 7 7 7 7 7 7 7 7 7 7 7 7 7 7 7 7 7 7 7 7 7 7 7 7 7 7 7 7 7 7 7 7 7 7 7 7 7 7 7 7 7 7 7 7 7 7 7 7 7 7 7 7 7 7 7 7 7 7 7 7 7 7 7 7 ",
"7 7 7 7 7 7 7 7 7 7 7 7 7 7 7 7 7 7 7 7 7 7 7 7 7 7 7 7 7 7 7 7 7 7 7 7 7 7 7 7 7 7 7 7 7 7 7 7 7 7 7 7 7 7 7 7 7 7 7 7 7 7 7 7 7 7 7 7 7 7 7 7 7 7 7 7 7 7 7 7 ",
"7 7 7 7 7 7 7 7 7 7 7 7 7 7 7 7 7 7 7 7 7 7 7 7 7 7 7 7 7 7 7 7 7 7 7 7 7 7 7 7 7 7 7 7 7 7 7 7 7 7 7 7 7 7 7 7 7 7 7 7 7 7 7 7 7 7 7 7 7 7 7 7 7 7 7 7 7 7 7 7 "
};
