/* XPM */
static char *f4cbf7b1fd6e4cc2fcf6289898fff2b1fkg4JFWahsnS3sWh[] = {
/* columns rows colors chars-per-pixel */
"80 80 233 2 ",
"   c #0D7632",
".  c #907935",
"X  c #138A3E",
"o  c #71962A",
"O  c #759D2C",
"+  c #799D34",
"@  c #779D36",
"#  c #6F9529",
"$  c #7BA42E",
"%  c #7FA92F",
"&  c #7CA438",
"*  c #2BA755",
"=  c #369246",
"-  c #4F9B4E",
";  c #7DA543",
":  c #7BA647",
">  c #7BAB5C",
",  c #6FAB4B",
"<  c #779B74",
"1  c #7AB379",
"2  c #51A851",
"3  c #7DC474",
"4  c #819B39",
"5  c #AB8538",
"6  c #B78837",
"7  c #B2802F",
"8  c #80AB2F",
"9  c #83AE31",
"0  c #85A93B",
"q  c #84B031",
"w  c #86B139",
"e  c #8CB23D",
"r  c #88B036",
"t  c #C18A38",
"y  c #A88D44",
"u  c #A8944B",
"i  c #B1974E",
"p  c #89AB47",
"a  c #95AB49",
"s  c #8BB447",
"d  c #96B449",
"f  c #85AE59",
"g  c #98AC53",
"h  c #89B559",
"j  c #93B45B",
"k  c #99B956",
"l  c #A4AA57",
"z  c #B1A75D",
"x  c #A4BC5B",
"c  c #A6B759",
"v  c #969965",
"b  c #84A966",
"n  c #89B469",
"m  c #95B664",
"M  c #9BB96C",
"N  c #99B66A",
"B  c #86A67B",
"V  c #8BB675",
"C  c #9EBB72",
"Z  c #9BB879",
"A  c #9FA766",
"S  c #ABBA67",
"D  c #B3BA65",
"F  c #A1BD74",
"G  c #A2BE7C",
"H  c #B3AE63",
"J  c #8E9554",
"K  c #E4B25F",
"L  c #C9B066",
"P  c #F9BE67",
"I  c #C39849",
"U  c #A9C25D",
"Y  c #8CC378",
"T  c #95C677",
"R  c #ADC466",
"E  c #B7C368",
"W  c #A5C17A",
"Q  c #BBC676",
"!  c #F9C35D",
"~  c #C7C36C",
"^  c #C4CA7C",
"/  c #D4CC78",
"(  c #D4CA73",
")  c #FCC765",
"_  c #E7CD75",
"`  c #FCD57C",
"'  c #EECA70",
"]  c #28BE96",
"[  c #5CBF94",
"{  c #76B892",
"}  c #52B6AC",
"|  c #6ABBA4",
" . c #2BC39E",
".. c #3CCDA6",
"X. c #33D1AD",
"o. c #35E2BD",
"O. c #6DC688",
"+. c #76CA94",
"@. c #44CFA5",
"#. c #45D2AE",
"$. c #4AD2AE",
"%. c #58D1AA",
"&. c #4BD5B3",
"*. c #4AD9B6",
"=. c #53D5B4",
"-. c #54DCBC",
";. c #58DEBF",
":. c #57CDA5",
">. c #6BDCB7",
",. c #7DDAB5",
"<. c #6BC8AA",
"1. c #55E0BE",
"2. c #4BE0BC",
"3. c #6CE0BA",
"4. c #52CA9F",
"5. c #1BBBD8",
"6. c #3ABDCE",
"7. c #28BADB",
"8. c #37BED2",
"9. c #35BBE3",
"0. c #799CD7",
"q. c #6C92D7",
"w. c #42BCC9",
"e. c #7EA0D6",
"r. c #2CC1DD",
"t. c #26C0DD",
"y. c #38C3DD",
"u. c #37D7D3",
"i. c #3CE1DF",
"p. c #35C5E2",
"a. c #3AC6E3",
"s. c #3BCAE4",
"d. c #3DC8EC",
"f. c #37C6E9",
"g. c #3BCAF8",
"h. c #2AC3EA",
"j. c #59CAD9",
"k. c #4CC8CE",
"l. c #6CCDD2",
"z. c #48E5C7",
"x. c #5BE3C4",
"c. c #5BE5CA",
"v. c #56E7CA",
"b. c #4DEDD5",
"n. c #53E9D1",
"m. c #63E5C5",
"M. c #62E5C8",
"N. c #65E8CC",
"B. c #6AE8C9",
"V. c #66EBD1",
"C. c #43C9E5",
"Z. c #4CCDE7",
"A. c #4BCCE9",
"S. c #45C9E9",
"D. c #51CFEB",
"F. c #50CDE7",
"G. c #4ED1EB",
"H. c #52D1EC",
"J. c #55D3FD",
"K. c #64D5FD",
"L. c #69D7FF",
"P. c #6ADAF9",
"I. c #6ED6EB",
"U. c #79E0F4",
"Y. c #87A999",
"T. c #93B297",
"R. c #8DB289",
"E. c #A4BE86",
"W. c #84A7A5",
"Q. c #8DB7A8",
"!. c #A3BDB6",
"~. c #A0BAA2",
"^. c #85C985",
"/. c #93C693",
"(. c #94CE96",
"). c #AAC38B",
"_. c #A6C385",
"`. c #ABC994",
"'. c #B1C998",
"]. c #ADCE8D",
"[. c #98D3A8",
"{. c #8DCFAD",
"}. c #AFD1AA",
"|. c #B1E2B5",
" X c #D8D68A",
".X c #DBD794",
"XX c #CAD082",
"oX c #E7CB84",
"OX c #E6D486",
"+X c #FDD482",
"@X c #FCDB8C",
"#X c #FAD687",
"$X c #ECDE9C",
"%X c #E7DC98",
"&X c #FDDD91",
"*X c #FFE196",
"=X c #FFE39C",
"-X c #FBE69D",
";X c #D6D8AE",
":X c #FADFA3",
">X c #E2DDA6",
",X c #EEE2A3",
"<X c #FEE5A5",
"1X c #FEE6AA",
"2X c #FEE9AE",
"3X c #F7E5A5",
"4X c #FFEDB3",
"5X c #FFE7B6",
"6X c #FFF1B9",
"7X c #8AA9C9",
"8X c #89A8DA",
"9X c #9BB6DC",
"0X c #91ADD2",
"qX c #A4BCDB",
"wX c #81A4E1",
"eX c #90DAD2",
"rX c #A9C2D5",
"tX c #AECCC8",
"yX c #B7E9C5",
"uX c #A4E7D8",
"iX c #BDF3DA",
"pX c #9EF3E9",
"aX c #95E9EF",
"sX c #ADFAF4",
"dX c #A3F6F4",
"fX c #B9FDF3",
"gX c #AAF4E6",
"hX c #9BE2D0",
"jX c #C0F4DA",
"kX c #C3FBEA",
"lX c #C4FFF3",
"zX c #CAFFF3",
"xX c #D3FFF8",
/* pixels */
"q q q q q q q q q q q q q q q q q q q q q q q q q q q q q q q q q q q q q q q q q q q q q q q q q q q q q q q q q q q q q q q q q q q q q q q q q q q q q q q q ",
"q q q q q q q q q q q q q q q q q q q q q q q q q q q q q q q q q q q 9 q q q 9 q s w 9 q q q q q q q q q q q q q q q q q q q q q q q q q q q q q q q q q q q q ",
"q q q q q q q q q q q q q q q q q q q q q q q q q q q q q q q q q q q e q 9 g e x H 8 8 9 9 9 q 9 q q q q q q q q q q q q q q q q q q q q q q q q q q q q q q q ",
"q q q q q q q q q q q q q q q q q q q q q q q q q q q q q q q q q q q r l c u H 5 z H l l l % % 9 q q q q q q q q q q q q q q q q q q q q q q q q q q q q q q q ",
"q q q q q q q q q q q q q q q q q q q q 9 r 9 r q q q q q q q q q q l g i . t 7 t 6 y y 5 z J 0 % % q q q q q q q q q q q q q q q q q q q q q q 9 q q q q q q q ",
"q q q q q q q q q q q q q q q q q q q q q 9 9 9 q q q q q q q q q q c 5 v {.Q.T.B v y 6 i y u g $ % 8 9 q q q q q q q q q q q q q q q q q q q q q q q q q q q q ",
"q q q q q q q q q q q q q q q q q q q 0 9 q 8 9 q 9 q q q q q q q q d A P.K.L.L.K.L.eXB y 6 i u g O % 9 q q q q q q q q q q q q q q q q q q q q q q q q q q q q ",
"q q q q q q q q q q q q q q q q q q q N T.Y.N 8 9 9 9 9 q q q q q q % {.K.L.K.K.I.L.K.L.I.v 6 y u g + $ 9 9 q q q q q q q q q q q q q q q q q q q q q q q q q q ",
"q q q q q q q q q q q q q q q q 9 j 7X9XqX!.qX0Xb % 9 9 9 q q q q q q {.l.{ Q.aXU.J.J.P.K.J.< 6 y A O $ 9 9 q q q q q q q q q q q q q q q q q q q q q q q q q q ",
"q q q q q q q q q q q q q q q q Z wX!.F C 0 N tXwXb $ 8 9 q q q q q q k L K +X<X3X;XuXI.f.g.g.< 7 i & $ % q q q q q q q q q q q q q q q q q q q q q q q q q q q ",
"q q q q q q q q q q q q q q q Z 0.}.j M E.Z ).).qX0.$ $ 9 9 q q q q q x 4X6X4X<X<X=X<X>XeXg.g.A.y i + O $ 9 q q q q q q q q q q q q q q q q q q q q q q q q q q ",
"q q q q q q q q q q q q q 8 s 0.}.j j f Z F E.F E.wXb $ $ 9 9 q q q q R <X<X<X<X<X<X1X=X<XeX9.j.S z o $ % 9 q q q q q q q q q q q q q q q q q q q q q q q q q q ",
"q q q q q q q q q q q q q q Q.qX).G F m _.C G F G 8XY.O $ 9 9 9 q q 9 ^ <X<X<X<X1X<X<X1X6XP } | # + O $ 8 8 q q q q q q q q q q q q q q q q q q q q q q q q q q ",
"q q q q q q q q q q q q q w 8X`.F E.m S F m M j E.0XW.O $ 8 9 9 q q w  X<X<X<X2X1X<X<X1X4XI J o # O $ 8 9 q q q q q q q q q q q q q q q q q q q q q q q q q q q ",
"q q q q q q q q q q q q 8 Z 8XW N E.T C C G ).F '.8XY.O O 8 9 q q q q %X<X<X<X<X<X<X<X6XoX. + o O $ 9 q 9 q q q q q q q q q q q q q q q q q q q q q q q q q q q ",
"q q q q q q q q q q q q q W.rXm N G j j p M G p '.0.Y.O $ 9 9 q q q q $X<X<X<X<X<X1X1X4XoXL @ + $ % 9 q q q q q q q q q q q q q q q q q q q q q q q q q q q q q ",
"q q q q q q q q q q q q q 7XtXm M G N F C ).).F tX0.b O $ % 9 q q q q ,X<X<X<X<X<X<X<X<X1X6X:Xc $ $ 9 q q q q q q q q q q q q q q q q q q q q q q q q q q q q q ",
"q q q q q q q q q q q q q 0XrXM m G G '.C C F ].9X0.& O $ 9 q q q q q $X<X<X2X1X1X1X<X1X1X1X=X.XO $ 9 9 q q q q q q q q q q q q q q q q q q q q q q q q q q q q ",
"q q q q q q q q q q q q q 7XtXj N G _.).C C a }.q.Y.O $ $ 8 9 q q q q $X<X<X<X<X<X1X1X5X1X=X:Xg O $ 8 9 q q q q q q q q q q q q q q q q q q q q q q q q q q q q ",
"q q q q q q q q q q q q q T.qXj Z N M Z Z N N 7Xq.& O $ % 9 q q q q q %X-X<X<X<X2X<X=XoXXXS 0 o $ $ 9 q q q q q q q q q q q q q q q q q q q q q q q q q q q q q ",
"q q q q q q q q q q q q q s 8X'.W G ).).F ).qXq.B $ $ $ % q q q q q q XX<X<X2X1X-X@X` L o o O $ $ 8 9 q q q q q q q q q q q q q q q q q q q q q q q q q q q q q ",
"q q q q q q q q q q q q q w T.9X`.p j _.E.qXq.R.O O $ $ % q q q q q q U -X<X=X@X+X` ! D o O $ 8 9 9 9 q q q q q q q q q q q q q q q q q q q q q q q q q q q q q ",
"q q q q q q q q q q q q q q 9 T.9X~.!.qX8X0.b o $ $ % q q q q q q q q 9 XX+X` E _ ! ! ~ o O 8 8 9 q q q q q q q q q q q q q q q q q q q q q q q q q q q q q q q ",
"q q q q q q q q q q q q q q 9 9 f 0XwXW.< 4 O + % % % q q q q q q q q q % 0 $ # ! ` ` ) 0 O $ 8 9 9 q q q q q q q q q q q q q q q q q q q q q q q q q q q q q q ",
"q q q q q q q q q q q q q q q q 0 0XT.$ O $ $ % % 9 q q q q q q q q q q q 9 3 /.+X&X&X) K O.f $ 9 8 q q q q q q q q q q q q q q q q q q q q q q q q q q q q q q ",
"q q q q q q q q q q q q q q q q p 8Xm O O $ % % % q q q q q q q q q q q w 3.2.OX#X@X#XoX+.X.@.+.$ 8 9 9 q q q q q q q q q q q q q q q q q q q q q q q q q q q q ",
"q q q q q q q q q q q q q q q q n 8X$ $ % % 9 q q q q q q q q q q q q q {.2.v.,.`.`.[.c.b.B.x.x.p $ 8 9 q q q q q q q q q q q q q q q q q q q q q q q q q q q q ",
"q q q q q q q q q q q q q q q q '.;XS O % % 9 q q q q q q q q q q q q s 1.c.N.n.b.n.b.c.V.M.M.x.n O $ 9 9 q q q q q q q q q q q q q q q q q q q q q q q q q q q ",
"q q q q q q q q q q q q q q w %X*X-X-X^ $ $ % q q q q q q q q q q q q T 1.B.V.B.x.x.x.M.m.m.N.x.> O $ % q q q q q q q q q q q q q q q q q q q q q q q q q q q q ",
"q q q q q q q q q q q q q q Q =X<X<X<X=XS $ % % q q q q q q q q q q q T 1.V.$.2.M.M.M.M.N.N.c.=.@ o $ % 9 q q q q q q q q q q q q q q q q q q q q q q q q q q q ",
"q q q q q q q q q q q q q q  X1X5X<X1X<X3Xg $ % % % q q q q q q q q q Y N.2. . .v.B.M.M.N.N.*.:.# O % % q q q q q q q q q q q q q q q q q q q q q q q q q q q q ",
"q q q q q q q q q q q q q q .X%X$X6X1X<X<X<X%X^ S e % % q q q q q q q +.2. . .[ >.V.M.N.N.*...%.# $ % % q q q q q q q q q q q q q q q q q q q q q q q q q q q q ",
"q q q q q q q q q q q q q q R * X F 1X+X@X@X@X*X=X1X.XQ k e 8 9 q q % ^.{.[.>X` `.b.N.c.-.#.#.<.# O % % q q q q q q q q q q q q q q q q q q q q q q q q q q q q ",
"q q q q q q q q q q q q q q , *   - Q g 0 g D ( OX&X@X*X<X1X%XXXQ  X-X<X1X4X:X+X[.b.x.#.#.&.$.%.o $ % % q q q q q q q q q q q q q q q q q q q q q q q q q q q q ",
"q q q q q q q q q q q q q q , *   , o O O $ $ $ $ p x ~ OX&X@X@X-X@X@X&X%XE.1 O.=.*.$.#.&.&.#.=.@ O % % q q q q q q q q q q q q q q q q q q q q q q q q q q q q ",
"q q q q q q q q q q q q q q 2 X   @ O O $ 8 8 8 8 8 % $ $ a x E U U e m c.X. .X.#.$.#.&.&.&.#.&.: $ % % 9 q q q q q q q q q q q q q q q q q q q q q q q q q q q ",
"q q q q q q q q q q q q q q h = - + O $ 8 r 8 q 8 q 8 8 % % % $ $ $ $ 0 n.M.x.x.x.-.=.$.&.x.1.#.> $ $ 9 q q q q q q q q q q q q q q q q q q q q q q q q q q q q ",
"q q q q q q q q q q q q q q % % + O % % 8 q q q r 8 q q 9 9 9 9 % % % h m.c.N.N.V.N.M.x.x.N.N...{ O $ % q q q q q q q q q q q q q q q q q q q q q q q q q q q q ",
"q q q q q q q q q q q q q q q 9 9 % % 9 q q q q q q q q q q 0 q 9 9 e &X>.v.M.M.M.M.M.N.N.M.B.#.+.o $ % 9 q q q q q q q q q q q q q q q q q q q q q q q q q q q ",
"q q q q q q q q q q q q q q q 9 q 9 9 9 q q q q q q q q q q 9 q q q $X@X,.n.M.M.M.M.M.m.M.M.V.*.&.o O % 9 q q q q q q q q q q q q q q q q q q q q q q q q q q q ",
"q q q q q q q q q q q q q q q q q q q q q q q q q q q q q q q q q .X` x +.v.N.N.m.c.M.M.M.M.B.-...V O $ % q q q q q q q q q q q q q q q q q q q q q q q q q q q ",
"q q q q q q q q q q q q q q q q q q q q q q q q q q q q q q q q .X` E $ ^.1.N.c.M.m.M.m.M.M.M.-...%.@ $ % 9 q q q q q q q q q q q q q q q q q q q q q q q q q q ",
"q q q q q q q q q q q q q q q q q q q q q q q q q q q q e R ^ %X@X( $ $ V 2.x.m.m.m.M.M.M.M.c.&.#.@.f + % 9 q q q q q q q q q q q q q q q q q q q q q q q q q q ",
"q q q q q q q q q q q q q q q q q q q q q q q q q q q e -X=X<X*XOXO O $ & ^.m.m.B.B.m.m.m.M.>.:.*.u.> O % % q q q q q q q q q q q q q q q q q q q q q q q q q q ",
"q q q q q q q q q q q q q q q q q q q q q q q q q q q U <X<X1X&XD O $ $ % % C.b.v.v.m.x.c.n.z.u.r.7.6.+ $ % % q q q q q q q q q q q q q q q q q q q q q q q q q ",
"q q q q q q q q q q q q q q q q q q q q q q q q q q q k <X<XE .Xc O $ % % {.f.9.9.p.s.s.a.a.9.9.r.r.7.w.: $ % q q q q q q q q q q q q q q q q q q q q q q q q q ",
"q q q q q q q q q q q q q q q q q q q q q q q q q q q q <X=XO Q a $ $ % q Z.C.G.Z.Z.S.S.A.A.A.A.A.a.r.5.8.p $ % 9 q q q q q q q q q q q q q q q q q q q q q q q ",
"q q q q q q q q q q q q q q q q q q q q q q q q q q q 8 R :Xd s 0 $ % % ^.s.A.A.S.A.D.A.A.A.A.A.Z.G.a.r.5.6.p $ 8 8 9 q q q q q q q q q q q q q q q q q q q q q ",
"q q q q q q q q q q q q q q q q q q q q q q q q q q q q q e w % $ 9 9 q j.d.Z.C.Z.a.C.H.A.A.A.A.A.A.D.p.r.5.y.f $ % 9 9 q q q q q q q q q q q q q q q q q q q q ",
"q q q q q q q q q q q q q q q q q q q q q q q q q q q q q q % % 9 9 q T a.A.Z.A.D.s.8.y.s.A.A.A.A.A.Z.Z.p.t.5.1 O $ 9 9 q q q q q q q q q q q q q q q q q q q q ",
"q q q q q q q q q q q q q q q q q q q q q q q q q q q q q q % q 9 9 q j.s.Z.A.A.H.p.7.6.} d.A.A.A.A.A.G.H.h.k.+ O $ 8 q q q q q q q q q q q q q q q q q q q q q ",
"q q q q q q q q q q q q q q q q q q q q q q q q q q q q q q q q q 9 V a.A.Z.A.D.C.r.5.| o | p.C.A.A.A.Z.d.S.D o O % 9 q q q q q q q q q q q q q q q q q q q q q ",
"q q q q q q q q q q q q q q q q q q q q q q q q q q q q q q q q q q <.f.Z.A.A.G.p.r.7.> o O V S.a.A.A.d.f.}.S o $ $ 9 q q q q q q q q q q q q q q q q q q q q q ",
"q q q q q q q q q q q q q q q q q q q q q q q q q q q q q q q q q q ).C.d.Z.G.C.r.5.k.# O O % h j.p.p.d.R.` $XO O 8 8 q q q q q q q q q q q q q q q q q q q q q ",
"q q q q q q q q q q q q q q q q q q q q q q q q q q q q q q q q 9 U *X.Xj.d.s.y.7.8.1 # $ 8 8 8 w +.l.f O _ @XQ $ $ 9 9 q q q q q q q q q q q q q q q q q q q q ",
"q q q q q q q q q q q q q q q q q q q q q q q q q q q q q q q q d <X*X_ a { y.5.5.w.# o $ 8 q 8 8 8 O O $ a ` *X X$ $ 9 9 q q q q q q q q q q q q q q q q q q q ",
"q q q q q q q q q q q q q q q q q q q q q q q q q q q q q q q q ,X*X/ $ O $ ; { } p o $ $ 8 q q q 9 8 8 % 8 d #X=X.XO $ 8 9 q q q q q q q q q q q q q q q q q q ",
"q q q q q q q q q q q q q q q q q q q q q q q q q q q q q q q Q *XOXO $ O $ % % $ $ $ 8 8 8 q q q q q q 8 q q s #X=X.X$ % 8 q q q q q q q q q q q q q q q q q q ",
"q q q q q q q q q q q q q q q q q q q q q q q q q q q q q q q %X@Xd $ O % % % % 9 8 8 9 q q q q q q q q q q q % p OX=X^ $ % 8 q q q q q q q q q q q q q q q q q ",
"q q q q q q q q q q q q q q q q q q q q q q q q q q q q q q q ,X@Xd O $ % % q q 9 9 9 q q q q q q q q q q q q q q e OX*XS $ % 8 9 9 q q q q q q q q q q q q q q ",
"q q q q q q q q q q q q q q q q q q q q q q q q q q q q q q e <X@Xp $ $ % q q q q q q q q q q q q q q q q q q q q q 9 oX,X>.> 8 8 9 9 q q q q q q q q q q q q q ",
"q q q q q q q q q q q q q q q q q q q q q q q q q q q q q q k -X@X$ $ $ q q q q q q q q q q q q q q q q q q q q q q % s 4.o.3._.0 $ 9 9 q q q q q q q q q q q q ",
"q q q q q q q q q q q q q q q q q q q q q q q q q q q q q q R &X^ O $ % % q q q q q q q q q q q q q q q q q q q q q q w O.-.gXxXiX$ 8 8 r 8 q q q q q q q q q q ",
"q q q q q q q q q q q q q q q q q q q q q q q q q q q q q q ^ @Xc O $ % q q q q q q q q q q q q q q q q q q q q q q q q k zXxXfXzXyXO 8 8 q q q q q q q q q q q ",
"q q q q q q q q q q q q q q q q q q q q q q q q q q q q q q  X@X0 O $ % q q q q q q q q q q q q q q q q q q q q q q q q iXzXlXzXlXgXO $ 8 8 q q q q q q q q q q ",
"q q q q q q q q q q q q q q q q q q q q q q q q q q q q q q 1X_ $ $ $ % q q q q q q q q q q q q q q q q q q q q q q q ].lXlXkXzXsX; o $ 8 8 q q q q q q q q q q ",
"q q q q q q q q q q q q q q q q q q q q q q 9 8 q q q q q O.(._.$ + $ 9 q q q q q q q q q q q q q q q q q q q q q q q kXlXzXzXsXV o O $ 8 q q q q q q q q q q q ",
"q q q q q q q q q q q q q q q q q q q k |.}.T w 8 8 q q d x.o.1.$ O $ 9 q q q q q q q q q q q q q q q q q q q q q w yXlXlXzXsX/.o O + 8 8 q q q q q q q q q q q ",
"q q q q q q q q q q q q q q q q q q q iXlXlXlXkXyX|.yXiXxXpX1.(.O O % 9 q q q q q q q q q q q q q q q q q q q q k iXfXzXzXsX/.o o $ 8 8 q q q q q q q q q q q q ",
"q q q q q q q q q q q q q q q q q q q |.fXzXzXzXlXlXlXlXlXxXfXuX@ O % 9 q q q q q q q q q q q q q q q q q q 9 s kXzXzXlXsX/.o o $ 8 8 8 q q q q q q q q q q q q ",
"q q q q q q q q q q q q q q q q q q q q |.sXfXzXzXzXzXzXlXxXzXdXO O $ 8 q q q q q q q q q q q q q q q q q q 9 [.sXfXsXdXV o O $ 8 8 r q q q q q q q q q q q q q ",
"q q q q q q q q q q q q q q q q q q q q % h (.uXfXfXfXlXfXlXdX[.o $ 8 9 q q q q q q q q q q q q q q q q q q q T aXpXhXp o O $ 8 8 8 q q q q q q q q q q q q q q ",
"q q q q q q q q q q q q q q q q q q q q 9 8 8 $ p n (.[.yXuXhX> O $ 8 9 q q q q q q q q q q q q q q q q q q q q r s $ $ O $ 8 8 q q q q q q q q q q q q q q q q ",
"q q q q q q q q q q q q q q q q q q q q q q 8 8 % & $ % O O O $ $ $ 8 9 q q q q q q q q q q q q q q q q q q q q q 8 % $ 8 8 8 q q q q q q q q q q q q q q q q q ",
"q q q q q q q q q q q q q q q q q q q q q q q q % q % % 8 % % $ 8 8 9 q q q q q q q q q q q q q q q q q q q q q q q 8 8 q q 8 q q q q q q q q q q q q q q q q q ",
"q q q q q q q q q q q q q q q q q q q q q q q q q q q q 8 q q 8 9 q 9 q q q q q q q q q q q q q q q q q q q q q q q q q q q q q q q q q q q q q q q q q q q q q ",
"q q q q q q q q q q q q q q q q q q q q q q q q q q q q q q q q q q q q q q q q q q q q q q q q q q q q q q q q q q q q q q q q q q q q q q q q q q q q q q q q ",
"q q q q q q q q q q q q q q q q q q q q q q q q q q q q q q q q q q q q q q q q q q q q q q q q q q q q q q q q q q q q q q q q q q q q q q q q q q q q q q q q ",
"q q q q q q q q q q q q q q q q q q q q q q q q q q q q q q q q q q q q q q q q q q q q q q q q q q q q q q q q q q q q q q q q q q q q q q q q q q q q q q q q ",
"q q q q q q q q q q q q q q q q q q q q q q q q q q q q q q q q q q q q q q q q q q q q q q q q q q q q q q q q q q q q q q q q q q q q q q q q q q q q q q q q "
};
