/* XPM */
static char *_16c0168fc2b4cb3ba6a2a1ac156ca3dsb5xi2jyFLs16XrM[] = {
/* columns rows colors chars-per-pixel */
"80 80 236 2 ",
"   c #237F33",
".  c #6E7C4E",
"X  c #9E7C37",
"o  c #A8772D",
"O  c #AA7B31",
"+  c #B27A2C",
"@  c #368B2B",
"#  c #6E9329",
"$  c #71962B",
"%  c #749B2B",
"&  c #749834",
"*  c #739C3B",
"=  c #789935",
"-  c #7AA32D",
";  c #7EA92F",
":  c #7FA53C",
">  c #319C5C",
",  c #11BB7F",
"<  c #28B472",
"1  c #759D41",
"2  c #799E5C",
"3  c #79A149",
"4  c #79A756",
"5  c #6BB85A",
"6  c #6ABC79",
"7  c #78B468",
"8  c #49B579",
"9  c #79C77B",
"0  c #74C170",
"q  c #9F883C",
"w  c #93973C",
"e  c #A3813A",
"r  c #AC853B",
"t  c #80AB2F",
"y  c #82AD30",
"u  c #87A73C",
"i  c #84B031",
"p  c #89B237",
"a  c #8BB33B",
"s  c #87B43A",
"d  c #998B4B",
"f  c #889B48",
"g  c #A58A44",
"h  c #A29847",
"j  c #A99952",
"k  c #89A746",
"l  c #9AAB4A",
"z  c #8DBA4B",
"x  c #88B647",
"c  c #9CBA4B",
"v  c #96B546",
"b  c #88A958",
"n  c #8AB855",
"m  c #93B75C",
"M  c #9EA351",
"N  c #A4BD4E",
"B  c #A4AB53",
"V  c #A8B858",
"C  c #B5AE57",
"Z  c #848F63",
"A  c #87AB64",
"S  c #92AF66",
"D  c #99B769",
"F  c #89B575",
"G  c #9EBB73",
"H  c #9BBC76",
"J  c #89B36F",
"K  c #B1BD63",
"L  c #A1BD74",
"P  c #CCBD65",
"I  c #D1B968",
"U  c #D5B870",
"Y  c #C4A751",
"T  c #ABC25D",
"R  c #B0C25E",
"E  c #80C778",
"W  c #B4C566",
"Q  c #BECA77",
"!  c #A3C274",
"~  c #D4C56B",
"^  c #C8CC77",
"/  c #D6CD77",
"(  c #D6D17C",
")  c #C0C06A",
"_  c #F8C768",
"`  c #FFD267",
"'  c #FCCE74",
"]  c #FBCE7C",
"[  c #E8D07D",
"{  c #FED275",
"}  c #FDD47C",
"|  c #F5D17D",
" . c #E2C571",
".. c #0EB982",
"X. c #36B7AE",
"o. c #739C8C",
"O. c #69B88C",
"+. c #72B98B",
"@. c #6BB293",
"#. c #7099B7",
"$. c #6F94B3",
"%. c #5BBAAB",
"&. c #48B8B0",
"*. c #7AAEB0",
"=. c #58AC96",
"-. c #19C48C",
";. c #26C58E",
":. c #38CA9D",
">. c #2ECB97",
",. c #3CCDA4",
"<. c #35CDA2",
"1. c #2BD2A5",
"2. c #3BD2A7",
"3. c #2ED4B7",
"4. c #38E4BC",
"5. c #57C99A",
"6. c #4FC896",
"7. c #7AC58D",
"8. c #65C391",
"9. c #77D293",
"0. c #46CEA5",
"q. c #43D4AB",
"w. c #46D4A9",
"e. c #57D4AC",
"r. c #46DEB6",
"t. c #4ADCB5",
"y. c #4DDEB9",
"u. c #45D7B0",
"i. c #58DCB6",
"p. c #58C4B9",
"a. c #66D5A7",
"s. c #75D5A8",
"d. c #68DBB4",
"f. c #6CC9B7",
"g. c #4BE2BA",
"h. c #46E5BA",
"j. c #54E2BF",
"k. c #53EABD",
"l. c #15B8CF",
"z. c #19BBD9",
"x. c #0CB1D1",
"c. c #24BCD5",
"v. c #2BB8CB",
"b. c #7299D8",
"n. c #6A95CA",
"m. c #72A8CA",
"M. c #6E96E0",
"N. c #37DDC7",
"B. c #2DC5DE",
"V. c #22C1DA",
"C. c #37C6DD",
"Z. c #33C9C9",
"A. c #28C4E9",
"S. c #35CAE5",
"D. c #3DCAE5",
"F. c #3CCBEB",
"G. c #35C7E8",
"H. c #2CCDFB",
"J. c #37D0F8",
"K. c #4FCED4",
"L. c #67D3D7",
"P. c #73D4D0",
"I. c #4CE6C3",
"U. c #48E9CA",
"Y. c #55E4C1",
"T. c #59E6C4",
"R. c #59E8C8",
"E. c #41CCE6",
"W. c #45CDE8",
"Q. c #4BD1E4",
"!. c #55D6FC",
"~. c #5CD9FE",
"^. c #5AD5F8",
"/. c #41CAFC",
"(. c #67D7E8",
"). c #65DBF6",
"_. c #76DEE7",
"`. c #8AA59A",
"'. c #8EAF92",
"]. c #A9BB84",
"[. c #90AEB5",
"{. c #A2BDB9",
"}. c #B8BFA0",
"|. c #8C9EAD",
" X c #EDB6B8",
".X c #88C587",
"XX c #96C995",
"oX c #97D190",
"OX c #A8C686",
"+X c #ABC695",
"@X c #A5D999",
"#X c #B1C78C",
"$X c #8DCCA2",
"%X c #94D5B4",
"&X c #B1CFB6",
"*X c #ADE3B9",
"=X c #B3E9BE",
"-X c #AEE3AF",
";X c #C8C786",
":X c #D9D486",
">X c #D2D58E",
",X c #E8D58A",
"<X c #FDD484",
"1X c #FAD889",
"2X c #ECDB98",
"3X c #FEDD93",
"4X c #FDDD9A",
"5X c #F2DC95",
"6X c #F5CF81",
"7X c #FFE196",
"8X c #FEE19D",
"9X c #D1D4AD",
"0X c #FBDEA3",
"qX c #E2CCB8",
"wX c #FEE3A3",
"eX c #FEE7A9",
"rX c #FFE7B2",
"tX c #ECE2A6",
"yX c #92AAD6",
"uX c #97B3D8",
"iX c #8BA9D3",
"pX c #A3BFC6",
"aX c #82CDC3",
"sX c #A7C2C1",
"dX c #BBC7C5",
"fX c #9CE5D1",
"gX c #AAEDD1",
"hX c #9AF8F5",
"jX c #92EDE9",
"kX c #BAFDEF",
"lX c #A7FBF3",
"zX c #BCFFF1",
"xX c #B6FFF2",
"cX c #C2FFEF",
"vX c #C4FFF2",
"bX c #CBFFF5",
/* pixels */
"i i i i i i i i i i i i i i i i i i i i i i i i i i i i i i i i i i i i i i i i i i i i i i i i i i i i i i i i i i i i i i i i i i i i i i i i i i i i i i i i ",
"i i i i i i i i i i i i i i i i i i i i i i i i i i i i i i i i i i i i i i i i i i i i i i i i i i i i i i i i i i i i i i i i i i i i i i i i i i i i i i i i ",
"i i i i i i i i i i i i i i i i i i i i i i i i i i i i i i i i i i i i i i i i y i y p i i i i i i i i i i i i i i i i i i i i i i i i i i i i i i i i i i i i ",
"i i i i i i i i i i i i i i i i i i i i i i i i i i i i i i i i i i i i i a i i p a i y i i i i i i i i i i i i i i i i i i i i i i i i i i i i i i i i i i i i ",
"i i i i i i i i i i i i i i i i i i i i i i i i i i i i i i i i i i i p p h c l g M v y y i y y i i i i i i i i i i i i i i i i i i i i i i i i i i i i i i i i ",
"i i i i i i i i i i i i i i i i i i i i i i i i i i i i i i i i i i i B B r j O e d g f k t i y i i i i i i i i i i i i i i i i i i i i i i i i i i i i i i i i ",
"i i i i i i i i i i i i i i i i i i i i i i i i i i i i i i i i i a M d o d O O O O r r e = % t i i i i i i i i i i i i i i i i i i i i i i i i i i i i i i i i ",
"i i i i i i i i i i i i i i i i i i i i i i i i i i i i i i i i p l r o O O d Z d d O + + g $ # t i i i i i i i i i i i i i i i i i i i i i i i i i i i i i i i ",
"i i i i i i i i i i i i i i i i i i i i i i i i i i i i i i i i v r Z '.*.'.(.!.L.(.L.o.=.. h # $ y i i i i i i i i i i i i i i i i i i i i i i i i i i i i i i ",
"i i i i i i i i i i i i i i i i i i i i i i i i i i i i i i i i y .X!.!.~.^.^.).).).).J.H.D.j # # - i i i i i i i i i i i i i i i i i i i i i i i i i i i i i i ",
"i i i i i i i i i i i i i i i i i i i i i i i i i i i i i i i i i (.~.^.^.^.~.!.!.!.!.F.G.G.J # # $ i i i i i i i i i i i i i i i i i i i i i i i i i i i i i i ",
"i i i i i i i i i i i i i i i i i i i i i i i i i i i i i i i i i P.!.^.(._.P.aXaXjX_.D.A.H.2 # # - i i y i i i i i i i i i i i i i i i i i i i i i i i i i i i ",
"i i i i i i i i i i i i i i i i i i i i i i i i i i i i i i i i i z s.9X4X3X| <X<X3X8XtX$X%.$ # # t i i i i i i i i i i i i i i i i i i i i i i i i i i i i i i ",
"i i i i i i i i i i i i i i i i i i i i i i i i i i i i i i i i i i j 7X4X7XwXwXwX8X7XeX_ h # # $ y i i i i i i i i i i i i i i i i i i i i i i i i i i i i i i ",
"i i i i i i i i i i i i i i i i i i i i i i i i i i i i i i i i c ( P 4XwX8X8X8X8X8X8XrXU Y K # - i i i i i i i i i i i i i i i i i i i i i i i i i i i i i i i ",
"i i i i i i i i i i i i i i i i i i i i i i i i i i i i i i i i ^ 7X,X3X8X8X8X8X8X8X8XeX ._ ' & $ - i i i i i i i i i i i i i i i i i i i i i i i i i i i i i i ",
"i i i i i i i i i i i i i i i i i i i i i i i i i i i i i i i i N 7XwXwX8X8X8X8X8X8X8X8X<X_ ~ # $ # i y i i i i i i i i i i i i i i i i i i i i i i i i i i i i ",
"i i i i i i i i i i i i i i i i i i i i i i i i i i i i i i i i i T 5X8X8X8X8X8X8X8XwX8X{ P & # # % y y i i i i i i i i i i i i i i i i i i i i i i i i i i i i ",
"i i i i i i i i i i i i i i i i i i i i i i i i i i i i i i i i i i s ,X8X8X8X8X8X8XeX<XC # # # % i i i i i i i i i i i i i i i i i i i i i i i i i i i i i i i ",
"i i i i i i i i i i i i i i i i i i i i i i i i i i i i i i i i i i i R 8X8X8X8X8XwX7X| # # # - i i i i i i i i i i i i i i i i i i i i i i i i i i i i i i i i ",
"i i i i i i i i i i i i i i i i i i i i i i i i i i i i i i i i i i i i 5X8XwX4XwXwX| C # # # i i i i i i i i i i i i i i i i i i i i i i i i i i i i i i i i i ",
"i i i i i i i i i i i i i i i i i i i i i i i i i i i i i i i i i i i i c 1X8XeXwX| ~ # # # - i i i i i i i i i i i i i i i i i i i i i i i i i i i i i i i i i ",
"i i i i i i i i i i i i i i i i i i i i i i i i i i i i i i i i i i i i i N | ' ' C # # # % i i i i i i i i i i i i i i i i i i i i i i i i i i i i i i i i i i ",
"i i i i i i i i i i i i i i i i i i i i i i i i i i i i i i i i i i i i i i _ _ _ # # # - i i i i i i i i i i i i i i i i i i i i i i i i i i i i i i i i i i i ",
"i i i i i i i i i i i i i i i i i i i i i i i i i i i i i i i i i i i x x ~ ' <X' P * # y y i i i i i i i i i i i i i i i i i i i i i i i i i i i i i i i i i i ",
"i i i i i i i i i i i i i i i i i i i i i i i i i i i i i i i i s n 9.I.i.;X<X] <X;Xe.0.7 y i i i i i i i i i i i i i i i i i i i i i i i i i i i i i i i i i i ",
"i i i i i i i i i i i i i i i i i i i i i i i i i i i i i i i i 9 g.g.j.I.I.d.d.d.I.I.j.g.7.$ - i i i i i i i i i i i i i i i i i i i i i i i i i i i i i i i i ",
"i i i i i i i i i i i i i i i i i i i i i i i i i i i i i i i 9.g.g.Y.j.i.I.I.U.U.Y.j.j.j.r.a.& % i i i i i i i i i i i i i i i i i i i i i i i i i i i i i i i ",
"i i i i i i i i i i i i i i i i i i i i i i i i i i i i i x a.r.y.Y.Y.Y.Y.Y.Y.Y.j.j.j.j.j.j.g.e.3 % i i y y p y i i i i i i i i i i i i i i i i i i i i i i i i ",
"i i i i i i i i i i i i i i i i i i i i i i i i i i i i z e.g.j.Y.Y.y.Y.Y.y.Y.y.j.j.j.j.j.j.j.g.j.b # ; y y x b F J n i i i i i i i i i i i i i i i i i i i i i ",
"i i i i i i i i i i i i i i i i i i i i i i i i i i i z j.t.j.j.Y.Y.Y.Y.i.Y.Y.Y.j.j.j.Y.j.j.j.j.g.w.3 # 2 *.[.{.sX&XiX|.b t i i i i i i i i i i i i i i i i i i ",
"i i i i i i i i i i i i i i i i i i i i i i i i i i s e.r.k.j.j.Y.t.y.Y.Y.Y.Y.y.j.j.Y.i.k.j.j.j.k.h.e.`.[.&X! ].H b k ].uX3 $ t i i i i i i i i i i i i i i i i ",
"i i i i i i i i i i i i i i i i i i i i i i i i s ; s.r.U.j.j.T.t.,.y.T.Y.y.Y.Y.j.j.j.Y.i.Y.Y.Y.j.k.m.m.D * L b S D H D dX[.- # ; i i i i i i i i i i i i i i i ",
"i i i i i i i i i i i i i i i i i i i i i i i i i n , >.s.U.R.y.,.,.u.T.Y.Y.i.Y.j.j.j.Y.t.,.g.T.k.L.n.:.'.b S G ! #X! D OXuXt % % i i i i i i i i i i i i i i i ",
"i i i i i i i i i i i i i i i i i i i i i i i i i x ;.8 <XoXg.0.@.,.,.y.Y.Y.Y.Y.j.j.j.R.2.O.e.k.w.[.p.:.].].S S OXn G m ].iXt - # i i i i i i i i i i i i i i i ",
"i i i i i i i i i i i i i i i i i i i i i i i i i i x >X4X~ -.O.# ,.,.,.Y.Y.Y.Y.j.j.R.y.:.& 4 -.+. X+X+Xb S S m m H l D uX*.t % # i i i i i i i i i i i i i i i ",
"i i i i i i i i i i i i i i i i i i i i i i i i i i N eX6X< -.& # 0.,.,.q.Y.Y.Y.Y.Y.Y.2.,.& # :.< dXqX2Xb Z m G D x ! [.b.k - # % i i i i i i i i i i i i i i i ",
"i i i i i i i i i i i i i i i i i i i i i i i i i i 2X1XW 5 1 # # O.<.,.,.t.Y.Y.Y.Y.q.:.0.# # # 5 iXyX9XG = b V L +XuXn.A = % # ; i i i i i i i i i i i i i i i ",
"i i i i i i i i i i i i i i i i i i i i i i i i i T 7X,Xy % $ % - 9 <.q.,.u.T.T.R.u.<.<.5.# # f yX'.'.b.iX{.{.sXiXb.#.4 - # # ; i i i i i i i i i i i i i i i i ",
"i i i i i i i i i i i i i i i i i i i i i i i i i ^ 7X,XK k $ y i 7 <.,.0.Y.Y.u.u.,.<.>.6 # `.M.A i R ;X|.#.n.$.o.2 # # # $ ; i i i i i i i i i i i i i i i i i ",
"i i i i i i i i i i i i i i i i i i i i i i i i i c 2X7X7X7X2X^ V z 1.1.2.w.0.:.0.1.w.XX#X'.#.u a / } ` N - # $ $ $ % % t i i i i i i i i i i i i i i i i i i i ",
"i i i i i i i i i i i i i i i i i i i i i i i i i i i T ( 5X4X7X7X5X+Xs.w.3.3.N.N.e.8X0X8X;X= / ` '  .N % # # t y y i i y i i i i i i i i i i i i i i i i i i i ",
"i i i i i i i i i i i i i i i i i i i i i i i i i i i i i i c ) ( wX8X3X8X&XP.Q...7 rX4XwX1X{ | ~ c % # # $ t y i i i i i i i i i i i i i i i i i i i i i i i i ",
"i i i i i i i i i i i i i i i i i i i i i i i i i i i i i i y y i L.P.&X0XwX0X0X@   9XwX].Q B = $ # $ % t y i i i i i i i i i i i i i i i i i i i i i i i i i i ",
"i i i i i i i i i i i i i i i i i i i i i i i i i i i i i i i i f.A.A.A.Q.;XeX4X' X.G.Q.A.X.# # $ - y i i i i i i i i i i i i i i i i i i i i i i i i i i i i i ",
"i i i i i i i i i i i i i i i i i i i i i i i i i i i i i i i J B.G.E.D.A.> ` ] +XJ.G.G./.V.@.# $ i i i i i i i i i i i i i i i i i i i i i i i i i i i i i i i ",
"i i i i i i i i i i i i i i i i i i i i i i i i i i i i i i y K.A.E.D.E.G.Z.O.Z.z.E.D.D.E.D.c.* # - i i i i i i i i i i i i i i i i i i i i i i i i i i i i i i ",
"i i i i i i i i i i i i i i i i i i i i i i i i i i i i i i .XB.E.D.D.E.B.z.z.c.V.S.E.D.D.E.V.%.# $ y i i i i i i i i i i i i i i i i i i i i i i i i i i i i i ",
"i i i i i i i i i i i i i i i i i i i i i i i i i i i i i s C.S.D.D.E.G.l.&.3 & O.B.S.D.D.D.D.z.1 # % y i i i i i i i i i i i i i i i i i i i i i i i i i i i i ",
"i i i i i i i i i i i i i i i i i i i i i i i i i i i i i K.A.E.D.E.F.l.&.# # # $ E C.G.D.D.W.V.v.= # y i i i i i i i i i i i i i i i i i i i i i i i i i i i i ",
"i i i i i i i i i i i i i i i i i i i i i i i i i i i i O.%.Q.A.F.W.l.&.# # # % y y .XB.D.D.A.Q.&.=.# $ y p i i i i i i i i i i i i i i i i i i i i i i i i i i ",
"i i i i i i i i i i i i i i i i i i i i i i i i i i i i H <X3XP.G.z.v.& # # % i i i i f.B.J.L.,X} S # # % i i i i i i i i i i i i i i i i i i i i i i i i i i i ",
"i i i i i i i i i i i i i i i i i i i i i i i i i i i i ( eX8X` %.x.4 # # # i i i i i p C.p.{ 7XeX6X$ $ % y i i i i i i i i i i i i i i i i i i i i i i i i i i ",
"i i i i i i i i i i i i i i i i i i i i i i i i i i ; T 7XeX} _ +.7 # # # ; i i i i i i n +.,XwXwX1XV # % y i i i i i i i i i i i i i i i i i i i i i i i i i i ",
"i i i i i i i i i i i i i i i i i i i i i i i i i i i 2X8X} ' : # # # $ - i i i i i i i i i p ( 4X8X,X% $ - y i i i i i i i i i i i i i i i i i i i i i i i i i ",
"i i i i i i i i i i i i i i i i i i i i i i i i i i W 7X1X~ - # # $ t y i i i i i i i i i i i i ^ 8X3XC # # y y i i i i i i i i i i i i i i i i i i i i i i i i ",
"i i i i i i i i i i i i i i i i i i i i i i i i i i 8X7X[ - # # % y i i i i i i i i i i i i i i i ,X7X<X$ # - i i i i i i i i i i i i i i i i i i i i i i i i i ",
"i i i i i i i i i i i i i i i i i i i i i i i i i ; ( 7X1Xu # # y y i i i i i i i i i i i i i i a 5X1X/ % # # y i i i i i i i i i i i i i i i i i i i i i i i i ",
"i i i i i i i i i i i i i i i i i i i i i i i i i i i 5X7X[ # # y i i i i i i i i i i i i i i i :X8X<Xa $ # % i i i i i i i i i i i i i i i i i i i i i i i i i ",
"i i i i i i i i i i i i i i i i i i i i i i i i i i i c 8X<XB # $ y i i i i i i i i i i i i i x wX6XR % # # y i i i i i i i i i i i i i i i i i i i i i i i i i ",
"i i i i i i i i i i i i i i i i i i i i i i i i i i i i Q 3X[ # $ - i i i i i i i i i i i i i ^ 1X/ i # $ - i i i i i i i i i i i i i i i i i i i i i i i i i i ",
"i i i i i i i i i i i i i i i i i i i i i i i i i i i i i ,X<Xk $ % i y i i i i i i i i i i i 8X| s - # % i i i i i i i i i i i i i i i i i i i i i i i i i i i ",
"i i i i i i i i i i i i i i i i i i i i i i i i i i i i i s 3X[ $ # y y i i i i i i i i i i W <Xc i # # y i i i i i i i i i i i i i i i i i i i i i i i i i i i ",
"i i i i i i i i i i i i i i i i i i i i i i i i i i i i i i V <Xa # % i i i i i i i i i i i 1X/ i - # ; i i i i i i i i i i i i i i i i i i i i i i i i i i i i ",
"i i i i i i i i i i i i i i i i i i i i i i i i i i i i i i 9 oX5.7 # i i i i i i i i i x d.E 9 ; # % i i i i i i i i i i i i i i i i i i i i i i i i i i i i i ",
"i i i i i i i i i i i i i i i i i i i i i i i i i i i i i i 9 4.>.O.# # ; i i i i i i i n h.1.8.% # - i i i i i i i i i i i i i i i i i i i i i i i i i i i i i ",
"i i i i i i i i i i i i i i i i i i i i i i i i i i i i i i oXk.2.s.# # - i i i i i i i oXj.2.%X$ $ - i i i i i i i i i i i i i i i i i i i i i i i i i i i i i ",
"i i i i i i i i i i i i i i i i i i i i i i i i i i i i z =XbXcXhXhX# # # i i i i i i i =XxXxXvXfX7 $ i i i i i i i i i i i i i i i i i i i i i i i i i i i i i ",
"i i i i i i i i i i i i i i i i i i i i i i ; s i i z @XzXcXcXlXhXfX$ # # i i i i i i i @XcXbXbXcXzX%X4 - i i i i i i i i i i i i i i i i i i i i i i i i i i i ",
"i i i i i i i i i i i i i i i i i i i i i i s ; m @XcXzXvXvXhXjX$X1 # # $ i i i i i i i i ! gXxXvXcXcXxX%Xn ; i i i i i i i i i i i i i i i i i i i i i i i i i ",
"i i i i i i i i i i i i i i i i i i i i i i i ! zXxXzXcXvXhXjX3 # # # % i i i i i i i i i i i -XxXcXcXcXzXxX.X% - i i i i i i i i i i i i i i i i i i i i i i i ",
"i i i i i i i i i i i i i i i i i i i i i i i -XzXvXvXxXhX%X* # # # i i i i i i i i i i i i i i @XzXzXkXvXzX%X# # - i i i i i i i i i i i i i i i i i i i i i i ",
"i i i i i i i i i i i i i i i i i i i i i i i s @XgXfX$X4 # # # % i i i i i i i i i i i i i i i i z @X*X*XXX* # # % i i i i i i i i i i i i i i i i i i i i i i ",
"i i i i i i i i i i i i i i i i i i i i i i i i i i i % % % % ; i i i i i i i i i i i i i i i i i i i i t - % % % y i i i i i i i i i i i i i i i i i i i i i i ",
"i i i i i i i i i i i i i i i i i i i i i i i i i i i i i i i i i i i i i i i i i i i i i i i i i i i i i i i i i i i i i i i i i i i i i i i i i i i i i i i i ",
"i i i i i i i i i i i i i i i i i i i i i i i i i i i i i i i i i i i i i i i i i i i i i i i i i i i i i i i i i i i i i i i i i i i i i i i i i i i i i i i i ",
"i i i i i i i i i i i i i i i i i i i i i i i i i i i i i i i i i i i i i i i i i i i i i i i i i i i i i i i i i i i i i i i i i i i i i i i i i i i i i i i i ",
"i i i i i i i i i i i i i i i i i i i i i i i i i i i i i i i i i i i i i i i i i i i i i i i i i i i i i i i i i i i i i i i i i i i i i i i i i i i i i i i i ",
"i i i i i i i i i i i i i i i i i i i i i i i i i i i i i i i i i i i i i i i i i i i i i i i i i i i i i i i i i i i i i i i i i i i i i i i i i i i i i i i i ",
"i i i i i i i i i i i i i i i i i i i i i i i i i i i i i i i i i i i i i i i i i i i i i i i i i i i i i i i i i i i i i i i i i i i i i i i i i i i i i i i i "
};
