/* XPM */
static char *_f79067f97e34847f5e66e841b5e0e4dlZUYcgl72JEdEFvu[] = {
/* columns rows colors chars-per-pixel */
"80 80 235 2 ",
"   c #0F7933",
".  c #967E38",
"X  c #0F8B3C",
"o  c #2E893D",
"O  c #71962A",
"+  c #759C2C",
"@  c #769B33",
"#  c #789E39",
"$  c #6E9930",
"%  c #7AA32D",
"&  c #7FA92F",
"*  c #7BA336",
"=  c #2E964C",
"-  c #3AAA5A",
";  c #47964E",
":  c #7A9F42",
">  c #53AA58",
",  c #7AA347",
"<  c #7AB051",
"1  c #79B668",
"2  c #7BC675",
"3  c #90923C",
"4  c #A7873D",
"5  c #B78838",
"6  c #80AB2F",
"7  c #83AE31",
"8  c #82A43B",
"9  c #86AA3B",
"0  c #84B031",
"q  c #8CB33D",
"w  c #93B53F",
"e  c #A88E45",
"r  c #A9934C",
"t  c #A99A57",
"y  c #B89449",
"u  c #8AAB48",
"i  c #97A94C",
"p  c #8AB444",
"a  c #88B245",
"s  c #96B549",
"d  c #88AD57",
"f  c #94AC53",
"g  c #8CB456",
"h  c #99B559",
"j  c #A8A958",
"k  c #A4B85A",
"l  c #B6BA5C",
"z  c #A5A14D",
"x  c #8B976D",
"c  c #88B76A",
"v  c #96B464",
"b  c #99B866",
"n  c #99B66C",
"m  c #9CBA6B",
"M  c #98B669",
"N  c #88B87A",
"B  c #9DBB73",
"V  c #9BBB79",
"C  c #88AD69",
"Z  c #AAB965",
"A  c #B6BD66",
"S  c #A1BE75",
"D  c #A3BE7C",
"F  c #B2B570",
"G  c #9B9243",
"H  c #FFBF5C",
"J  c #D3AC5C",
"K  c #8AC577",
"L  c #93C46F",
"P  c #ACC265",
"I  c #B9C368",
"U  c #A5C17C",
"Y  c #A2C777",
"T  c #B7C373",
"R  c #C7C46B",
"E  c #C7CC7B",
"W  c #D7CB78",
"Q  c #DED07D",
"!  c #F8CA68",
"~  c #FCD47D",
"^  c #F0C670",
"/  c #20BE96",
"(  c #7BA89E",
")  c #7AB89A",
"_  c #7AB98A",
"`  c #56B9AC",
"'  c #74BDA4",
"]  c #66BFB4",
"[  c #33C79B",
"{  c #3BCCA5",
"}  c #3AD1AB",
"|  c #38D9B6",
" . c #25C9A5",
".. c #77CA8B",
"X. c #7EC698",
"o. c #74CF9A",
"O. c #45CFA8",
"+. c #44D1AC",
"@. c #4AD2AE",
"#. c #4BD4B2",
"$. c #4BDCB9",
"%. c #54DCBC",
"&. c #52D2B1",
"*. c #58CCAE",
"=. c #68D3AA",
"-. c #71D4A5",
";. c #76DDB8",
":. c #6ACFB8",
">. c #46E2BF",
",. c #52E1BD",
"<. c #49C39A",
"1. c #1CBAD6",
"2. c #1CBBDA",
"3. c #26BDDA",
"4. c #33BFDB",
"5. c #2CBBE0",
"6. c #35BCE2",
"7. c #789BD8",
"8. c #7397CD",
"9. c #7CA0C2",
"0. c #4BBFCD",
"q. c #2EC1DD",
"w. c #26C0DD",
"e. c #32C6DD",
"r. c #35D3CD",
"t. c #35C4E2",
"y. c #3BC6E3",
"u. c #3CCAE4",
"i. c #3AC7E9",
"p. c #37C8F8",
"a. c #29C5F5",
"s. c #48C2D3",
"d. c #5AC9D4",
"f. c #56D0C9",
"g. c #73D0CC",
"h. c #4BE9CD",
"j. c #5CE2C4",
"k. c #5DE5CA",
"l. c #55E5C7",
"z. c #56EBD2",
"x. c #4CE7D6",
"c. c #66E4C5",
"v. c #62E5C8",
"b. c #66E8CC",
"n. c #68EACE",
"m. c #6AE6C4",
"M. c #68EBD1",
"N. c #77EAD2",
"B. c #43CAE6",
"V. c #4BCCE9",
"C. c #45CAE8",
"Z. c #51CFEB",
"A. c #52C8E0",
"S. c #53D1F1",
"D. c #65D5FF",
"F. c #69D6FF",
"G. c #68D8F9",
"H. c #70D6E8",
"J. c #77E0FF",
"K. c #8BB587",
"L. c #90B885",
"P. c #89AB98",
"I. c #8EB297",
"U. c #A2BD85",
"Y. c #8BABA7",
"T. c #90B5AE",
"R. c #A1BAA0",
"E. c #88C987",
"W. c #98C986",
"Q. c #84C593",
"!. c #9DD29B",
"~. c #8FCF96",
"^. c #A5C084",
"/. c #ABC48E",
"(. c #A6C584",
"). c #ACC894",
"_. c #B2C995",
"`. c #A5D297",
"'. c #86D2A7",
"]. c #9AD6A3",
"[. c #9BDCB7",
"{. c #8DD0B4",
"}. c #B5CCAB",
"|. c #A9D8A8",
" X c #ADCEB6",
".X c #B2E3B8",
"XX c #CACE85",
"oX c #CBD189",
"OX c #D7D488",
"+X c #DBD793",
"@X c #D1CF8B",
"#X c #FDD985",
"$X c #FDDB8D",
"%X c #FDD588",
"&X c #E9DA99",
"*X c #FDDD93",
"=X c #F6DC98",
"-X c #EAD388",
";X c #FFE39E",
":X c #FCE49B",
">X c #FFE08C",
",X c #F1DFA1",
"<X c #FEE6A6",
"1X c #FEE6AA",
"2X c #FEEAAE",
"3X c #F2E3A4",
"4X c #FFECB3",
"5X c #FFE6BA",
"6X c #FFF2BA",
"7X c #E4E1B2",
"8X c #D8D2B7",
"9X c #84A5C6",
"0X c #8BABDA",
"qX c #92AEDA",
"wX c #99B5DA",
"eX c #97B5D7",
"rX c #9BB7CD",
"tX c #A5BCD8",
"yX c #93B2E2",
"uX c #A7BEE0",
"iX c #AAC2C8",
"pX c #B3CBD0",
"aX c #9DE4CE",
"sX c #A2EBDB",
"dX c #B5ECD0",
"fX c #93EAEF",
"gX c #ABF1E6",
"hX c #BCFEF3",
"jX c #B5FCF5",
"kX c #AAF9F5",
"lX c #8FD8D4",
"zX c #C3FFF3",
"xX c #CAFFF3",
"cX c #D4FFF5",
"vX c #C4FDEE",
/* pixels */
"0 0 0 0 0 0 0 0 0 0 0 0 0 0 0 0 0 0 0 0 0 0 0 0 0 0 0 0 0 0 0 0 0 0 0 0 0 0 0 0 0 0 0 0 0 0 7 0 0 0 0 0 0 0 0 0 0 0 0 0 0 0 0 0 0 0 0 0 0 0 0 0 0 0 0 0 0 0 0 0 ",
"0 0 0 0 0 0 0 0 0 0 0 0 0 0 0 0 0 0 0 0 0 0 0 0 0 0 0 0 0 0 0 0 0 0 0 0 0 0 0 s p 7 0 0 0 0 7 7 0 0 0 0 0 0 0 0 0 0 0 0 0 0 0 0 0 0 0 0 0 0 0 0 0 0 0 0 0 0 0 0 ",
"0 0 0 0 0 0 0 0 0 0 0 0 0 0 0 0 0 0 0 0 0 0 0 0 0 0 0 0 0 0 0 0 0 0 0 0 0 0 6 s t 0 k q 7 9 7 7 0 0 0 0 0 0 0 0 0 0 0 0 0 0 0 0 0 0 0 0 0 0 0 0 0 0 0 0 0 0 0 0 ",
"0 0 0 0 0 0 0 0 0 0 0 0 0 0 0 0 0 0 0 0 0 0 0 0 0 0 0 0 0 0 0 0 0 0 0 s j j k Z 4 t j i j i 7 7 7 7 7 0 0 0 0 0 0 0 0 0 0 0 0 0 0 0 0 0 0 0 0 0 0 0 0 0 0 0 0 0 ",
"0 0 0 0 0 0 0 0 0 0 0 0 0 0 0 0 0 0 0 0 0 0 0 0 0 0 0 0 0 0 0 0 7 7 u j e 4 e 4 5 5 5 4 5 i z i 7 7 7 7 7 0 0 0 0 0 0 0 0 0 0 0 0 0 0 0 0 0 0 0 0 0 0 0 0 0 0 0 ",
"0 0 0 0 0 0 0 0 0 0 0 0 0 0 0 0 0 0 0 0 0 0 0 0 0 0 0 0 0 0 0 0 0 u t e y 5 5 r x P.I.T.I.4 y 8 + 6 7 7 0 0 0 0 0 0 0 0 0 0 0 0 0 0 0 0 0 0 0 0 0 0 0 0 0 0 0 0 ",
"0 0 0 0 0 0 0 0 0 0 0 0 0 0 0 0 0 0 0 0 0 0 0 0 0 0 0 0 0 0 0 0 s r t y 5 f T.H.G.D.F.F.D.g.t + + & 7 7 0 0 0 0 0 0 6 7 7 7 7 7 7 7 0 0 0 0 0 0 0 0 0 0 0 0 0 0 ",
"0 0 0 0 0 0 0 0 0 0 0 0 0 0 0 0 0 0 0 0 0 0 0 0 0 0 0 0 0 0 0 q j e 5 e {.J.D.G.G.G.D.F.F.F.# + % 7 7 7 0 0 0 0 0 0 f L.Y.L.d 7 7 7 7 0 0 0 0 0 0 0 0 0 0 0 0 0 ",
"0 0 0 0 0 0 0 0 0 0 0 0 0 0 0 0 0 0 0 0 0 0 0 0 0 0 0 0 0 0 0 p t 5 y d.S.J.G.G.G.fXlXP.P.H.: O % 6 0 0 0 0 7 7 0 I.tXtXT.wXqXP.7 6 7 7 7 0 0 0 0 0 0 0 0 0 0 0 ",
"0 0 0 0 0 0 0 0 0 0 0 0 0 0 0 0 0 0 0 0 0 0 0 0 0 0 0 0 0 0 0 k 4 4 d.p.i.S.H.dX7X1X=X^ J U.O + 6 6 7 0 0 0 0 7 Y.wX}.v f Z L.qX9X9 % 7 7 7 0 0 0 0 0 0 0 0 0 0 ",
"0 0 0 0 0 0 0 0 0 0 0 0 0 0 0 0 0 0 0 0 0 0 0 0 0 0 0 0 0 0 0 k 5 P.p.p.Z. X;X:X=X<X1X6X4XOXO + % 6 0 0 0 0 7 L.7.}.U.U.n V S (.wX9X% % 7 7 7 0 0 0 0 0 0 0 0 0 ",
"0 0 0 0 0 0 0 0 0 0 0 0 0 0 0 0 0 0 0 0 0 0 0 0 0 0 0 0 0 0 6 s l Q.a.Z.3X=X<X<X1X<X1X1X1X=X@ + 6 7 0 0 0 0 7 0XwXD U.S M n b Z B qXP.@ & 7 7 0 0 0 0 0 0 0 0 0 ",
"0 0 0 0 0 0 0 0 0 0 0 0 0 0 0 0 0 0 0 0 0 0 0 0 0 0 0 0 0 0 0 0 0 9 C.x $X2X<X1X<X1X<X2X<X<X8 + 6 6 0 0 0 0 p 7.tXS D n B ^.U D D }.0Xu % 6 7 7 0 0 0 0 0 0 0 0 ",
"0 0 0 0 0 0 0 0 0 0 0 0 0 0 0 0 0 0 0 0 0 0 0 0 0 0 0 0 0 0 0 6 0 6 h . -X6X<X<X<X<X<X<X<X<Xu + % 6 0 0 0 0 g 7.iXM v d n /.m U B h rXY.+ % 7 7 0 0 0 0 0 0 0 0 ",
"0 0 0 0 0 0 0 0 0 0 0 0 0 0 0 0 0 0 0 0 0 0 0 0 0 0 0 0 0 0 0 0 0 0 6 G y 4X1X1X1X<X1X1X<X<Xf + % 7 0 0 0 0 g 7.pXU.D V U.U.U Y S g pX0X+ 6 6 6 0 0 0 0 0 0 0 0 ",
"0 0 0 0 0 0 0 0 0 0 0 0 0 0 0 0 0 0 0 0 0 0 0 0 0 0 0 0 0 0 0 0 0 0 0 A J ,X2X1X<X<X<X<X<X<Xh + % 7 7 0 7 7 a 7.uXZ d m v n h g B n ).qX% + 6 7 0 0 0 0 0 0 0 0 ",
"0 0 0 0 0 0 0 0 0 0 0 0 0 0 0 0 0 0 0 0 0 0 0 0 0 0 0 0 0 0 0 0 0 0 OX2X6X<X<X<X<X<X<X1X<X<XZ + % 6 7 0 0 0 0 9X0XU.D U.U.U.S v S S /.wX+ % 6 7 7 0 0 0 0 0 0 0 ",
"0 0 0 0 0 0 0 0 0 0 0 0 0 0 0 0 0 0 0 0 0 0 0 0 0 0 0 0 0 0 0 0 0 q ;X<X1X<X<X<X1X<X1X1X<X;XZ + + 6 0 0 0 0 0 P.7.}.D L.S D Z S U.m _.wX% % 6 6 7 0 0 0 0 0 0 0 ",
"0 0 0 0 0 0 0 0 0 0 0 0 0 0 0 0 0 0 0 0 0 0 0 0 0 0 0 0 0 0 0 0 0 0 @X;X;X2X4X2X<X<X<X1X<X;Xh O % 6 7 0 0 0 0 p 7.wXB n D m v D /.b U.wX+ % 6 7 0 0 0 0 0 0 0 0 ",
"0 0 0 0 0 0 0 0 0 0 0 0 0 0 0 0 0 0 0 0 0 0 0 0 0 0 0 0 0 0 0 0 0 0 7 k E OX$X;X1X1X<X<X<X<Xf + % 6 7 0 0 0 0 0 P.8.R.h B d g B ).b U.qX% % % 6 0 0 0 0 0 0 0 0 ",
"0 0 0 0 0 0 0 0 0 0 0 0 0 0 0 0 0 0 0 0 0 0 0 0 0 0 0 0 0 0 0 0 0 0 0 0 & s ^ #X*X<X1X1X<X<X# + % 7 0 0 0 0 0 0 6 9.0XiXS v U._.R.Z tXT.+ % 6 0 0 0 0 0 0 0 0 0 ",
"0 0 0 0 0 0 0 0 0 0 0 0 0 0 0 0 0 0 0 0 0 0 0 0 0 0 0 0 0 0 0 0 0 0 0 0 6 7 ^ ! %X#X$X<X<X&XO + % 7 0 0 0 0 0 0 6 u 9.7.R.S U Z v  XeXu % % 6 6 0 0 0 0 0 0 0 0 ",
"0 0 0 0 0 0 0 0 0 0 0 0 0 0 0 0 0 0 0 0 0 0 0 0 0 0 0 0 0 0 0 0 0 0 0 0 0 w ! ! ! R W ~ %Xf O % 6 7 7 7 0 0 0 0 6 6 9 ( 7.qXtXR.R.yXd % % & 6 0 0 0 0 0 0 0 0 0 ",
"0 0 0 0 0 0 0 0 0 0 0 0 0 0 0 0 0 0 0 0 0 0 0 0 0 0 0 0 0 0 0 0 0 0 0 0 6 R ! #XH i O O 8 + % % 7 7 7 7 0 0 0 0 0 0 7 & d ( 9XqXY.# + % % % 0 0 0 0 0 0 0 0 0 0 ",
"0 0 0 0 0 0 0 0 0 0 0 0 0 0 0 0 0 0 0 0 0 0 0 0 0 0 0 0 0 0 0 0 0 0 0 2 K H ~ :X%X@X.., + + % 7 0 0 0 0 0 0 0 0 0 0 0 0 6 6 6 yXn @ + % 6 7 9 0 0 0 0 0 0 0 0 0 ",
"0 0 0 0 0 0 0 0 0 0 0 0 0 0 0 0 0 0 0 0 0 0 0 0 0 0 0 0 0 0 0 0 0 p =.} @.U %X%X%X%X'.h.E.% % 7 0 0 0 0 0 0 0 0 0 0 0 0 0 6 6 qXT.+ + 6 7 7 0 0 0 0 0 0 0 0 0 0 ",
"0 0 0 0 0 0 0 0 0 0 0 0 0 0 0 0 0 0 0 0 0 0 0 0 0 0 0 0 0 0 0 0 0 o.,.b.z.x.;.!.).].b.l.%.g % 7 0 0 0 0 0 0 0 0 0 0 0 0 0 0 7 I.0X% % & 7 7 7 0 0 0 0 0 0 0 0 0 ",
"0 0 0 0 0 0 0 0 0 0 0 0 0 0 0 0 0 0 0 0 0 0 0 0 0 0 0 0 0 0 0 0 0 ;.l.v.b.v.h.h.z.z.k.c.%.o.+ % & 7 0 0 0 0 0 0 0 0 0 0 0 0 p @X8Xu % % 7 7 7 7 0 0 0 0 0 0 0 0 ",
"0 0 0 0 0 0 0 0 0 0 0 0 0 0 0 0 0 0 0 0 0 0 0 0 0 0 0 0 0 0 0 0 0 -.j.v.v.v.v.j.j.j.M.M.l.;.O % & 0 0 0 0 0 0 0 0 0 0 0 0 s :X<X;X;XP % 6 7 0 0 0 0 0 0 0 0 0 0 ",
"0 0 0 0 0 0 0 0 0 0 0 0 0 0 0 0 0 0 0 0 0 0 0 0 0 0 0 0 0 0 0 0 0 ..#.n.b.v.c.b.v.j.+.%.k.:.@ % & 7 0 0 0 0 0 0 0 0 0 0 0 =X:X1X<X<X1X* % 6 7 0 0 0 0 0 0 0 0 0 ",
"0 0 0 0 0 0 0 0 0 0 0 0 0 0 0 0 0 0 0 0 0 0 0 0 0 0 0 0 0 0 0 0 0 2 +.j.n.v.v.c.n.| / [ l.m.@ + % 7 0 0 0 0 0 0 0 0 6 q E <X1X<X1X5X<Xf + 6 6 7 0 0 0 0 0 0 0 0 ",
"0 0 0 0 0 0 0 0 0 0 0 0 0 0 0 0 0 0 0 0 0 0 0 0 0 0 0 0 0 0 0 0 0 K { #.j.n.v.k.v.o.<. .| M.O + & 7 0 0 0 0 0 0 s T +X<X<X<X<X4X5XoX<Xf + % 7 7 0 0 0 0 0 0 0 0 ",
"0 0 0 0 0 0 0 0 0 0 0 0 0 0 0 0 0 0 0 0 0 0 0 0 0 0 0 0 0 0 0 0 0 K +.+.@.,.n.z.m.#X*X}.'.{.# O % 6 7 7 s P oX3X<X:X$X$X$X%X$X1X; X 1 @ + % 7 7 0 0 0 0 0 0 0 0 ",
"0 0 0 0 0 0 0 0 0 0 0 0 0 0 0 0 0 0 0 0 0 0 0 0 0 0 0 0 0 0 0 0 0 K +.#.@.@.%.k.k.-X%X2X1X2X3X&X@XE OX,X1X=X>X*X*XQ R k u 9 A A   X > + + 6 7 0 0 0 0 0 0 0 0 0 ",
"0 0 0 0 0 0 0 0 0 0 0 0 0 0 0 0 0 0 0 0 0 0 0 0 0 0 0 0 0 0 0 0 0 E.} #.#.#.+.#.$.*._ N oX:X$X*X$X$X$X*X*XQ A s 8 + + + % % % % = X - @ + % 7 0 0 0 0 0 0 0 0 0 ",
"0 0 0 0 0 0 0 0 0 0 0 0 0 0 0 0 0 0 0 0 0 0 0 0 0 0 0 0 0 0 0 0 0 o.} @.#.#.@.+.+.}  . .>.'.8 i k A I f 9 + % + % % & & & & & & =   = $ + & 7 0 0 0 0 0 0 0 0 0 ",
"0 0 0 0 0 0 0 0 0 0 0 0 0 0 0 0 0 0 0 0 0 0 0 0 0 0 0 0 0 0 0 0 7 =.+.j.%.@.#.%.,.j.%.v.l.-.O + % % % % % % % 6 & & & & 0 0 0 0 < o > * % & & 0 0 0 0 0 0 0 0 0 ",
"0 0 0 0 0 0 0 0 0 0 0 0 0 0 0 0 0 0 0 0 0 0 0 0 0 0 0 0 0 0 0 0 q &.$.M.b.j.j.b.n.b.n.b.l.Q.O + % 6 6 6 6 7 7 7 0 0 0 0 0 0 0 0 0 & 7 % % & 0 0 0 0 0 0 0 0 0 0 ",
"0 0 0 0 0 0 0 0 0 0 0 0 0 0 0 0 0 0 0 0 0 0 0 0 0 0 0 0 0 0 0 0 L O.j.b.v.b.v.v.v.v.v.v.h.!.F @ % 6 7 7 7 7 7 0 0 0 0 0 0 0 0 0 0 7 & & & & 0 0 0 0 0 0 0 0 0 0 ",
"0 0 0 0 0 0 0 0 0 0 0 0 0 0 0 0 0 0 0 0 0 0 0 0 0 0 0 0 0 0 0 0 E.[ k.v.c.v.v.v.v.v.v.k.z.).$XZ % 6 6 7 7 7 7 0 0 0 0 0 0 0 0 0 0 0 0 0 0 0 0 0 0 0 0 0 0 0 0 0 ",
"0 0 0 0 0 0 0 0 0 0 0 0 0 0 0 0 0 0 0 0 0 0 0 0 0 0 0 0 0 0 0 0 =.} j.b.j.v.v.v.v.v.v.j.z.d W $Xh % 6 6 0 0 0 0 0 0 0 0 0 0 0 0 0 0 0 0 0 0 0 0 0 0 0 0 0 0 0 0 ",
"0 0 0 0 0 0 0 0 0 0 0 0 0 0 0 0 0 0 0 0 0 0 0 0 0 0 0 0 0 0 0 L +.@.j.b.v.v.v.v.v.v.v.j.k.O O ~ :Xk % & 6 7 0 0 0 0 0 0 0 0 0 0 0 0 0 0 0 0 0 0 0 0 0 0 0 0 0 0 ",
"0 0 0 0 0 0 0 0 0 0 0 0 0 0 0 0 0 0 0 0 0 0 0 0 0 0 0 0 0 0 0 X.<.@.%.n.v.v.c.b.v.v.b.,.c.O O a #X<XXXT k 6 6 6 0 0 0 0 0 0 0 0 0 0 0 0 0 0 0 0 0 0 0 0 0 0 0 0 ",
"0 0 0 0 0 0 0 0 0 0 0 0 0 0 0 0 0 0 0 0 0 0 0 0 0 0 0 0 0 0 0 -.| @.&.m.c.c.c.c.m.m.j.=.d + + & Z %X<X;X;XE % 6 7 0 0 0 0 0 0 0 0 0 0 0 0 0 0 0 0 0 0 0 0 0 0 0 ",
"0 0 0 0 0 0 0 0 0 0 0 0 0 0 0 0 0 0 0 0 0 0 0 0 0 0 0 0 6 6 X.3.w.r.r.l.k.k.j.k.k.x.e.' O + % & 0 $X<X<X<X&X+ % & 7 0 0 0 0 0 0 0 0 0 0 0 0 0 0 0 0 0 0 0 0 0 0 ",
"0 0 0 0 0 0 0 0 0 0 0 0 0 0 0 0 0 0 0 0 0 0 0 0 0 0 0 0 0 Q.1.w.6.5.6.t.t.u.u.y.y.6.y.V., + & & 0 :XT XX:X+X+ % & 7 0 0 0 0 0 0 0 0 0 0 0 0 0 0 0 0 0 0 0 0 0 0 ",
"0 0 0 0 0 0 0 0 0 0 0 0 0 0 0 0 0 0 0 0 0 0 0 0 0 0 0 6 Q.1.3.q.i.V.Z.V.V.C.C.V.V.V.Z.t.) + * & & Q k Z *XT + % & 0 0 0 0 0 0 0 0 0 0 0 0 0 0 0 0 0 0 0 0 0 0 0 ",
"0 0 0 0 0 0 0 0 0 0 0 0 0 0 0 0 0 0 0 0 0 0 0 0 0 0 0 X.3.3.e.C.Z.V.V.V.V.V.V.Z.B.C.V.B.d.@ % & & h q oX&X* % % & 7 0 0 0 0 0 0 0 0 0 0 0 0 0 0 0 0 0 0 0 0 0 0 ",
"0 0 0 0 0 0 0 0 0 0 0 0 0 0 0 0 0 0 0 0 0 0 0 0 0 0 X.1.w.t.C.Z.C.V.V.V.V.Z.Z.e.B.V.V.C.t.K.+ % 0 0 & s & & & & & 0 0 0 0 0 0 0 0 0 0 0 0 0 0 0 0 0 0 0 0 0 0 0 ",
"0 0 0 0 0 0 0 0 0 0 0 0 0 0 0 0 0 0 0 0 0 0 0 0 0 0 s.1.q.C.Z.V.V.C.V.Z.V.y.e.q.V.V.V.V.u.d.+ % & 0 0 & 0 & & & 0 0 0 0 0 0 0 0 0 0 0 0 0 0 0 0 0 0 0 0 0 0 0 0 ",
"0 0 0 0 0 0 0 0 0 0 0 0 0 0 0 0 0 0 0 0 0 0 0 0 0 0 K 2.i.V.V.V.V.V.V.i.s.` 3.5.B.Z.V.V.C.y.N + & & 0 0 & 0 0 0 0 0 0 0 0 0 0 0 0 0 0 0 0 0 0 0 0 0 0 0 0 0 0 0 ",
"0 0 0 0 0 0 0 0 0 0 0 0 0 0 0 0 0 0 0 0 0 0 0 0 0 0 w N.p.V.V.V.V.V.i.s.: O 4.3.t.V.V.V.V.u.d.+ & & 0 0 0 0 0 0 0 0 0 0 0 0 0 0 0 0 0 0 0 0 0 0 0 0 0 0 0 0 0 0 ",
"0 0 0 0 0 0 0 0 0 0 0 0 0 0 0 0 0 0 0 0 0 0 0 0 0 0 0 >XH.t.V.V.B.i.f.# O + *.2.q.B.Z.V.V.C.p., % & 0 0 0 0 0 0 0 0 0 0 0 0 0 0 0 0 0 0 0 0 0 0 0 0 0 0 0 0 0 0 ",
"0 0 0 0 0 0 0 0 0 0 0 0 0 0 0 0 0 0 0 0 0 0 0 0 0 0 P #XQ *.t.6.B._ O O % & c 2.q.e.V.Z.C.a.g.f + % & & 0 0 0 0 0 0 0 0 0 0 0 0 0 0 0 0 0 0 0 0 0 0 0 0 0 0 0 0 ",
"0 0 0 0 0 0 0 0 0 0 0 0 0 0 0 0 0 0 0 0 0 0 0 0 0 s &X~ s + ' :.C O + 6 & & & s.1.4.y.i.i.{.#X&X+ % & & 0 0 0 0 0 0 0 0 0 0 0 0 0 0 0 0 0 0 0 0 0 0 0 0 0 0 0 0 ",
"0 0 0 0 0 0 0 0 0 0 0 0 0 0 0 0 0 0 0 0 0 0 0 0 A 1X#XR @ % % % + 6 + 8 & 0 0 v 1.1.3.d.d l #X:XXX+ & & 0 0 0 0 0 0 0 0 0 0 0 0 0 0 0 0 0 0 0 0 0 0 0 0 0 0 0 0 ",
"0 0 0 0 0 0 0 0 0 0 0 0 0 0 0 0 0 0 0 0 0 0 0 P <X$XW + + + 6 6 6 6 6 6 0 0 0 0 E.` 1 + + + k $X;Xb % & & 0 0 0 0 0 0 0 0 0 0 0 0 0 0 0 0 0 0 0 0 0 0 0 0 0 0 0 ",
"0 0 0 0 0 0 0 0 0 0 0 0 0 0 0 0 0 0 0 0 0 0 h <X>XR + + + 6 6 7 6 6 0 0 0 0 0 0 & & % % % & & k $X2X* % & 0 0 0 0 0 0 0 0 0 0 0 0 0 0 0 0 0 0 0 0 0 0 0 0 0 0 0 ",
"0 0 0 0 0 0 0 0 0 0 0 0 0 0 0 0 0 0 0 0 0 q 2X>XI % + % 6 7 7 0 0 0 0 0 0 0 0 0 0 0 & & & 6 0 6 Q ;Xh % & 0 0 0 0 0 0 0 0 0 0 0 0 0 0 0 0 0 0 0 0 0 0 0 0 0 0 0 ",
"0 0 0 0 0 0 0 0 0 0 0 0 0 0 0 0 0 0 0 & p &X>XI % + + 6 7 0 0 0 0 0 0 0 0 0 0 0 0 0 0 0 6 0 0 0 W :XP % & & 0 0 0 0 0 0 0 0 0 0 0 0 0 0 0 0 0 0 0 0 0 0 0 0 0 0 ",
"0 0 0 0 0 0 0 0 0 0 0 0 0 0 0 0 0 0 0 o.[.*Xl % + % & 6 0 0 0 0 0 0 0 0 0 0 0 0 0 0 0 0 0 0 0 0 E >XE % % & & 0 0 0 0 0 0 0 0 0 0 0 0 0 0 0 0 0 0 0 0 0 0 0 0 0 ",
"0 0 0 0 0 0 0 0 0 0 0 0 0 0 0 0 0 Y ].>.} Q.+ + % & 7 0 0 0 0 0 0 0 0 0 0 0 0 0 0 0 0 0 0 0 0 0 I #X+X% % & & 0 0 0 0 0 0 0 0 0 0 0 0 0 0 0 0 0 0 0 0 0 0 0 0 0 ",
"0 0 0 0 0 0 0 0 0 0 0 0 0 0 0 0 Y xXzXN.O.d + % % 7 7 0 0 0 0 0 0 0 0 0 0 0 0 0 0 0 0 0 0 0 0 0 s $X3X@ % & 0 0 0 0 0 0 0 0 0 0 0 0 0 0 0 0 0 0 0 0 0 0 0 0 0 0 ",
"0 0 0 0 0 0 0 0 0 0 0 0 0 0 0 L zXzXxXcXdXO + % & 7 0 0 0 0 0 0 0 0 0 0 0 0 0 0 0 0 0 0 0 0 0 0 0 $X<X* % & & 0 0 0 0 0 0 0 0 0 0 0 0 0 0 0 0 0 0 0 0 0 0 0 0 0 ",
"0 0 0 0 0 0 0 0 0 0 0 0 0 0 0 L hXvXzXxXxXV $ % & 0 0 0 0 0 0 0 0 0 0 0 0 0 0 0 0 0 0 0 0 0 0 0 0 W >Xg % % 7 7 0 0 0 0 0 0 0 0 0 0 0 0 0 0 0 0 0 0 0 0 0 0 0 0 ",
"0 0 0 0 0 0 0 0 0 0 0 0 0 0 0 0 |.jXxXzXzXzXO % & 0 0 0 0 0 0 0 0 0 0 0 0 0 0 0 0 0 0 0 0 0 0 0 0 q *XP % % 7 7 0 0 0 0 0 0 0 0 0 0 0 0 0 0 0 0 0 0 0 0 0 0 0 0 ",
"0 0 0 0 0 0 0 0 0 0 0 0 0 0 0 0 6 sXhXxXzXzX`.+ % 6 0 0 0 0 0 0 0 0 0 0 0 0 0 0 0 0 0 0 0 0 0 0 0 g `.[.* % & 7 0 0 0 0 0 0 0 0 0 0 0 0 0 0 0 0 0 0 0 0 0 0 0 0 ",
"0 0 0 0 0 0 0 0 0 0 0 0 0 0 0 0 0 p sXzXxXzXhXV % % 7 0 0 0 0 0 0 0 0 0 0 0 0 0 0 0 0 0 0 0 0 0 0 ..| >.E.8 % & 7 0 g `.|.(.0 & 0 0 0 0 0 0 0 0 0 0 0 0 0 0 0 0 ",
"0 0 0 0 0 0 0 0 0 0 0 0 0 0 0 0 0 6 p gXhXxXzXzX`.+ & 7 7 0 0 0 0 0 0 0 0 0 0 0 0 0 0 0 0 0 0 0 0 g k.N.zXxXdX.X.XdXxXzXzXzX(.% & 0 0 0 0 0 0 0 0 0 0 0 0 0 0 0 ",
"0 0 0 0 0 0 0 0 0 0 0 0 0 0 0 0 0 0 0 p sXjXxXxXzX`.% & 7 0 0 0 0 0 0 0 0 0 0 0 0 0 0 0 0 0 0 0 0 W.kXcXxXzXzXzXzXzXzXxXzXhXg + & & 0 0 0 0 0 0 0 0 0 0 0 0 0 0 ",
"0 0 0 0 0 0 0 0 0 0 0 0 0 0 0 0 0 0 0 6 7 [.kXjXjXkX* % & 0 0 0 0 0 0 0 0 0 0 0 0 0 0 0 0 0 0 0 0 ].kXcXzXzXzXxXxXxXzXhXgXc + % % 0 0 0 0 0 0 0 0 0 0 0 0 0 0 0 ",
"0 0 0 0 0 0 0 0 0 0 0 0 0 0 0 0 0 0 0 0 6 & E.sXfXaX@ % & 6 0 0 0 0 0 0 0 0 0 0 0 0 0 0 0 0 0 0 0 p kXjXzXzXzXhXzXgX[.N # + + % & & 0 0 0 0 0 0 0 0 0 0 0 0 0 0 ",
"0 0 0 0 0 0 0 0 0 0 0 0 0 0 0 0 0 0 0 0 0 6 & 9 u % % % 6 7 7 0 0 0 0 0 0 0 0 0 0 0 0 0 0 0 0 0 0 0 ].aXaX[.!.L.g @ + + % % % 6 0 0 0 0 0 0 0 0 0 0 0 0 0 0 0 0 ",
"0 0 0 0 0 0 0 0 0 0 0 0 0 0 0 0 0 0 0 0 0 0 0 7 6 6 % 6 7 7 0 0 0 0 0 0 0 0 0 0 0 0 0 0 0 0 0 0 0 0 7 7 % % @ % % % % % % 7 7 7 0 0 0 0 0 0 0 0 0 0 0 0 0 0 0 0 ",
"0 0 0 0 0 0 0 0 0 0 0 0 0 0 0 0 0 0 0 0 0 0 0 0 7 7 7 7 7 0 0 0 0 0 0 0 0 0 0 0 0 0 0 0 0 0 0 0 0 0 0 7 6 & & & 6 6 7 6 7 7 7 0 0 0 0 0 0 0 0 0 0 0 0 0 0 0 0 0 ",
"0 0 0 0 0 0 0 0 0 0 0 0 0 0 0 0 0 0 0 0 0 0 0 0 7 7 7 0 0 0 0 0 0 0 0 0 0 0 0 0 0 0 0 0 0 0 0 0 0 0 0 7 0 6 7 7 7 7 7 7 0 0 0 0 0 0 0 0 0 0 0 0 0 0 0 0 0 0 0 0 ",
"0 0 0 0 0 0 0 0 0 0 0 0 0 0 0 0 0 0 0 0 0 0 0 0 0 0 0 0 0 0 0 0 0 0 0 0 0 0 0 0 0 0 0 0 0 0 0 0 0 0 0 0 0 0 0 0 0 0 0 0 0 0 0 0 0 0 0 0 0 0 0 0 0 0 0 0 0 0 0 0 ",
"0 0 0 0 0 0 0 0 0 0 0 0 0 0 0 0 0 0 0 0 0 0 0 0 0 0 0 0 0 0 0 0 0 0 0 0 0 0 0 0 0 0 0 0 0 0 0 0 0 0 0 0 0 0 0 0 0 0 0 0 0 0 0 0 0 0 0 0 0 0 0 0 0 0 0 0 0 0 0 0 ",
"0 0 0 0 0 0 0 0 0 0 0 0 0 0 0 0 0 0 0 0 0 0 0 0 0 0 0 0 0 0 0 0 0 0 0 0 0 0 0 0 0 0 0 0 0 0 0 0 0 0 0 0 0 0 0 0 0 0 0 0 0 0 0 0 0 0 0 0 0 0 0 0 0 0 0 0 0 0 0 0 ",
"0 0 0 0 0 0 0 0 0 0 0 0 0 0 0 0 0 0 0 0 0 0 0 0 0 0 0 0 0 0 0 0 0 0 0 0 0 0 0 0 0 0 0 0 0 0 0 0 0 0 0 0 0 0 0 0 0 0 0 0 0 0 0 0 0 0 0 0 0 0 0 0 0 0 0 0 0 0 0 0 "
};
